<svg width="24" height="24" viewBox="0 0 24 24" fill="none" xmlns="http://www.w3.org/2000/svg">
<path d="M19.5 18.6669C19.5 18.8879 19.4122 19.0999 19.2559 19.2561C19.0996 19.4124 18.8877 19.5002 18.6667 19.5002H5.33333C5.11232 19.5002 4.90036 19.4124 4.74408 19.2561C4.5878 19.0999 4.5 18.8879 4.5 18.6669V9.90856C4.49991 9.78157 4.52885 9.65624 4.5846 9.54214C4.64035 9.42804 4.72143 9.3282 4.82167 9.25023L11.4883 4.06523C11.6346 3.95143 11.8147 3.88965 12 3.88965C12.1853 3.88965 12.3654 3.95143 12.5117 4.06523L19.1783 9.25023C19.2786 9.3282 19.3597 9.42804 19.4154 9.54214C19.4712 9.65624 19.5001 9.78157 19.5 9.90856V18.6669ZM17.8333 17.8336V10.3152L12 5.77856L6.16667 10.3152V17.8336H17.8333Z" fill="#4B4F54"/>
</svg>
