<svg width="24" height="24" viewBox="0 0 24 24" fill="none" xmlns="http://www.w3.org/2000/svg">
    <g clip-path="url(#clip0_1393_1108)">
        <path fill-rule="evenodd" clip-rule="evenodd"
            d="M10.7074 20V16.9524H13.755V20H10.7074ZM16.7176 12.2008C16.031 13.2799 14.9797 14.0766 13.755 14.4457V15.4286H10.7074V13.1429C10.7074 12.7387 10.868 12.3511 11.1537 12.0654C11.4395 11.7796 11.8271 11.619 12.2312 11.619C12.6641 11.619 13.0881 11.4961 13.4538 11.2645C13.8196 11.0329 14.112 10.7023 14.2972 10.311C14.4823 9.9197 14.5526 9.48388 14.4997 9.05424C14.4468 8.6246 14.2731 8.2188 13.9986 7.88406C13.7241 7.54931 13.3602 7.2994 12.9493 7.16338C12.5383 7.02737 12.0972 7.01085 11.6772 7.11574C11.2572 7.22064 10.8757 7.44264 10.5769 7.75591C10.2782 8.06918 10.0746 8.46085 9.98971 8.88533L7 8.28648C7.2423 7.07753 7.89588 5.98984 8.84959 5.20837C9.8033 4.4269 10.9983 3.99991 12.2312 4C13.5103 4.00387 14.7454 4.46701 15.7116 5.30508C16.6779 6.14315 17.311 7.30039 17.4956 8.56604C17.6802 9.8317 17.4041 11.1216 16.7176 12.2008Z"
            fill="#4B4F54" />
        <path
            d="M10.7074 16.9524V16.5024H10.2574V16.9524H10.7074ZM10.7074 20H10.2574V20.45H10.7074V20ZM13.755 16.9524H14.205V16.5024H13.755V16.9524ZM13.755 20V20.45H14.205V20H13.755ZM13.755 14.4457L13.6252 14.0149L13.305 14.1113V14.4457H13.755ZM16.7176 12.2008L16.3379 11.9592V11.9592L16.7176 12.2008ZM13.755 15.4286V15.8786H14.205V15.4286H13.755ZM10.7074 15.4286H10.2574V15.8786H10.7074V15.4286ZM11.1537 12.0654L11.4719 12.3836H11.4719L11.1537 12.0654ZM12.2312 11.619V12.069H12.2313L12.2312 11.619ZM13.4538 11.2645L13.6946 11.6447H13.6946L13.4538 11.2645ZM14.2972 10.311L13.8904 10.1185L14.2972 10.311ZM14.4997 9.05424L14.9463 8.99929V8.99929L14.4997 9.05424ZM13.9986 7.88406L14.3466 7.59873V7.59873L13.9986 7.88406ZM12.9493 7.16338L13.0907 6.73617H13.0907L12.9493 7.16338ZM11.6772 7.11574L11.7863 7.55233H11.7863L11.6772 7.11574ZM10.5769 7.75591L10.9026 8.06647L10.5769 7.75591ZM9.98971 8.88533L9.90133 9.32657L10.3427 9.41499L10.431 8.97353L9.98971 8.88533ZM7 8.28648L6.55877 8.19804L6.47033 8.63932L6.91162 8.72771L7 8.28648ZM8.84959 5.20837L8.56438 4.8603V4.8603L8.84959 5.20837ZM12.2312 4L12.2326 3.55L12.2313 3.55L12.2312 4ZM15.7116 5.30508L16.0065 4.96513L15.7116 5.30508ZM17.4956 8.56604L17.9409 8.50109L17.4956 8.56604ZM10.2574 16.9524V20H11.1574V16.9524H10.2574ZM13.755 16.5024H10.7074V17.4024H13.755V16.5024ZM14.205 20V16.9524H13.305V20H14.205ZM10.7074 20.45H13.755V19.55H10.7074V20.45ZM13.8849 14.8766C15.2128 14.4763 16.3528 13.6125 17.0972 12.4423L16.3379 11.9592C15.7092 12.9474 14.7466 13.6769 13.6252 14.0149L13.8849 14.8766ZM14.205 15.4286V14.4457H13.305V15.4286H14.205ZM10.7074 15.8786H13.755V14.9786H10.7074V15.8786ZM10.2574 13.1429V15.4286H11.1574V13.1429H10.2574ZM10.8355 11.7472C10.4654 12.1173 10.2574 12.6194 10.2574 13.1429H11.1574C11.1574 12.8581 11.2706 12.5849 11.4719 12.3836L10.8355 11.7472ZM12.2312 11.169C11.7078 11.169 11.2057 11.377 10.8355 11.7472L11.4719 12.3836C11.6733 12.1822 11.9464 12.069 12.2312 12.069V11.169ZM13.2131 10.8843C12.9194 11.0703 12.5789 11.169 12.2312 11.169L12.2313 12.069C12.7494 12.069 13.2568 11.9219 13.6946 11.6447L13.2131 10.8843ZM13.8904 10.1185C13.7417 10.4328 13.5068 10.6983 13.2131 10.8843L13.6946 11.6447C14.1323 11.3675 14.4823 10.9718 14.7039 10.5035L13.8904 10.1185ZM14.0531 9.10918C14.0955 9.45424 14.0391 9.80426 13.8904 10.1185L14.7039 10.5035C14.9255 10.0351 15.0096 9.51352 14.9463 8.99929L14.0531 9.10918ZM13.6506 8.16938C13.8711 8.43822 14.0106 8.76413 14.0531 9.10918L14.9463 8.99929C14.8831 8.48506 14.6751 7.99937 14.3466 7.59873L13.6506 8.16938ZM12.8079 7.59059C13.1379 7.69983 13.4302 7.90054 13.6506 8.16938L14.3466 7.59873C14.0181 7.19809 13.5825 6.89897 13.0907 6.73617L12.8079 7.59059ZM11.7863 7.55233C12.1236 7.46809 12.4778 7.48135 12.8079 7.59059L13.0907 6.73617C12.5988 6.57338 12.0708 6.55361 11.5682 6.67915L11.7863 7.55233ZM10.9026 8.06647C11.1425 7.81487 11.449 7.63657 11.7863 7.55233L11.5682 6.67915C11.0655 6.8047 10.6088 7.07041 10.2513 7.44536L10.9026 8.06647ZM10.431 8.97353C10.4991 8.63262 10.6627 8.31806 10.9026 8.06647L10.2513 7.44536C9.89372 7.8203 9.64999 8.28908 9.54844 8.79713L10.431 8.97353ZM6.91162 8.72771L9.90133 9.32657L10.0781 8.4441L7.08838 7.84524L6.91162 8.72771ZM8.56438 4.8603C7.53022 5.70768 6.82151 6.88712 6.55877 8.19804L7.44123 8.37491C7.66309 7.26794 8.26154 6.272 9.1348 5.55644L8.56438 4.8603ZM12.2313 3.55C10.8943 3.5499 9.59853 4.01291 8.56438 4.8603L9.1348 5.55644C10.0081 4.84089 11.1022 4.44991 12.2312 4.45L12.2313 3.55ZM16.0065 4.96513C14.9588 4.05639 13.6195 3.5542 12.2326 3.55L12.2299 4.45C13.4011 4.45354 14.532 4.87763 15.4168 5.64502L16.0065 4.96513ZM17.9409 8.50109C17.7407 7.1287 17.0542 5.87387 16.0065 4.96513L15.4168 5.64502C16.3015 6.41242 16.8812 7.47207 17.0503 8.631L17.9409 8.50109ZM17.0972 12.4423C17.8417 11.2721 18.1411 9.87347 17.9409 8.50109L17.0503 8.631C17.2194 9.78993 16.9666 10.971 16.3379 11.9592L17.0972 12.4423Z"
            fill="white" />
    </g>
    <defs>
        <clipPath id="clip0_1393_1108">
            <rect width="24" height="24" fill="white" />
        </clipPath>
    </defs>
</svg>
