<svg width="24" height="24" viewBox="0 0 24 24" fill="none" xmlns="http://www.w3.org/2000/svg">
    <path
        d="M12.3328 20.6667C7.73035 20.6667 3.99951 16.9358 3.99951 12.3333C3.99951 7.73083 7.73035 4 12.3328 4C16.9353 4 20.6662 7.73083 20.6662 12.3333C20.6662 16.9358 16.9353 20.6667 12.3328 20.6667ZM12.3328 19C14.101 19 15.7966 18.2976 17.0469 17.0474C18.2971 15.7971 18.9995 14.1014 18.9995 12.3333C18.9995 10.5652 18.2971 8.86953 17.0469 7.61929C15.7966 6.36905 14.101 5.66667 12.3328 5.66667C10.5647 5.66667 8.86904 6.36905 7.6188 7.61929C6.36856 8.86953 5.66618 10.5652 5.66618 12.3333C5.66618 14.1014 6.36856 15.7971 7.6188 17.0474C8.86904 18.2976 10.5647 19 12.3328 19ZM11.4995 8.16667H13.1662V9.83333H11.4995V8.16667ZM11.4995 11.5H13.1662V16.5H11.4995V11.5Z"
        fill="#4B4F54" />
</svg>
