<svg width="32" height="32" viewBox="0 0 32 32" fill="none" xmlns="http://www.w3.org/2000/svg">
    <g clip-path="url(#clip0_308_25881)">
        <path
            d="M15.9998 2.66663C23.3598 2.66663 29.3332 8.63996 29.3332 16C29.3332 23.36 23.3598 29.3333 15.9998 29.3333C8.63984 29.3333 2.6665 23.36 2.6665 16C2.6665 8.63996 8.63984 2.66663 15.9998 2.66663ZM8.0305 20.5546C9.98784 23.4746 12.9265 25.3333 16.2132 25.3333C19.4985 25.3333 22.4385 23.476 24.3945 20.5546C22.1755 18.4808 19.2504 17.329 16.2132 17.3333C13.1755 17.3287 10.2499 18.4804 8.0305 20.5546ZM15.9998 14.6666C17.0607 14.6666 18.0781 14.2452 18.8283 13.4951C19.5784 12.7449 19.9998 11.7275 19.9998 10.6666C19.9998 9.60576 19.5784 8.58835 18.8283 7.8382C18.0781 7.08805 17.0607 6.66663 15.9998 6.66663C14.939 6.66663 13.9216 7.08805 13.1714 7.8382C12.4213 8.58835 11.9998 9.60576 11.9998 10.6666C11.9998 11.7275 12.4213 12.7449 13.1714 13.4951C13.9216 14.2452 14.939 14.6666 15.9998 14.6666Z"
            fill="#4B4F54" />
    </g>
    <defs>
        <clipPath id="clip0_308_25881">
            <rect width="32" height="32" fill="white" />
        </clipPath>
    </defs>
</svg>
