<svg width="24" height="24" viewBox="0 0 24 24" fill="none" xmlns="http://www.w3.org/2000/svg">
<path d="M12.8835 8.7582L14.0627 9.93737C14.6045 10.4791 15.0342 11.1221 15.3274 11.8299C15.6206 12.5377 15.7715 13.2963 15.7715 14.0624C15.7715 14.8285 15.6206 15.5871 15.3274 16.2948C15.0342 17.0026 14.6045 17.6457 14.0627 18.1874L13.7677 18.4815C12.6737 19.5756 11.1899 20.1902 9.64271 20.1902C8.09554 20.1902 6.61173 19.5756 5.51771 18.4815C4.4237 17.3875 3.80908 15.9037 3.80908 14.3565C3.80908 12.8094 4.4237 11.3256 5.51771 10.2315L6.69688 11.4107C6.30719 11.797 5.99763 12.2565 5.78599 12.7627C5.57434 13.269 5.46477 13.812 5.46357 14.3607C5.46237 14.9094 5.56956 15.453 5.77898 15.9602C5.98841 16.4673 6.29595 16.9281 6.68395 17.3161C7.07194 17.7041 7.53276 18.0117 8.03993 18.2211C8.5471 18.4305 9.09064 18.5377 9.63935 18.5365C10.1881 18.5353 10.7311 18.4257 11.2374 18.2141C11.7436 18.0024 12.2031 17.6929 12.5894 17.3032L12.8844 17.0082C13.6655 16.2268 14.1043 15.1672 14.1043 14.0624C14.1043 12.9575 13.6655 11.8979 12.8844 11.1165L11.7052 9.93737L12.8844 8.75903L12.8835 8.7582ZM18.4819 13.7674L17.3035 12.589C17.6932 12.2027 18.0028 11.7433 18.2144 11.237C18.4261 10.7308 18.5357 10.1877 18.5369 9.63901C18.5381 9.0903 18.4309 8.54675 18.2214 8.03958C18.012 7.53241 17.7045 7.0716 17.3165 6.6836C16.9285 6.29561 16.4677 5.98807 15.9605 5.77864C15.4533 5.56921 14.9098 5.46202 14.3611 5.46322C13.8124 5.46443 13.2693 5.574 12.7631 5.78564C12.2568 5.99729 11.7973 6.30684 11.411 6.69653L11.116 6.99153C10.3349 7.7729 9.8961 8.83252 9.8961 9.93737C9.8961 11.0422 10.3349 12.1018 11.116 12.8832L12.2952 14.0624L11.116 15.2407L9.93771 14.0624C9.39597 13.5207 8.96624 12.8776 8.67305 12.1698C8.37986 11.4621 8.22896 10.7035 8.22896 9.93737C8.22896 9.17127 8.37986 8.41268 8.67305 7.70491C8.96624 6.99714 9.39597 6.35405 9.93771 5.81237L10.2327 5.5182C11.3267 4.42418 12.8105 3.80957 14.3577 3.80957C15.9049 3.80957 17.3887 4.42418 18.4827 5.5182C19.5767 6.61222 20.1913 8.09603 20.1913 9.6432C20.1913 11.1904 19.5767 12.6742 18.4827 13.7682L18.4819 13.7674Z" fill="#4B4F54"/>
</svg>
