<svg width="24" height="24" viewBox="0 0 24 24" fill="none" xmlns="http://www.w3.org/2000/svg">
<path d="M17.1667 15.3333H18.8333V4.33329H9.5V5.99996H17.1667V15.3333ZM17.1667 17V20.5C17.1667 20.96 16.7917 21.3333 16.3275 21.3333H4.33917C4.22927 21.334 4.12033 21.3129 4.0186 21.2713C3.91687 21.2297 3.82436 21.1685 3.74638 21.091C3.6684 21.0136 3.60649 20.9215 3.56421 20.8201C3.52193 20.7186 3.50011 20.6099 3.5 20.5L3.5025 6.83329C3.5025 6.37329 3.8775 5.99996 4.34167 5.99996H7.83333V3.49996C7.83333 3.27895 7.92113 3.06698 8.07741 2.9107C8.23369 2.75442 8.44565 2.66663 8.66667 2.66663H19.6667C19.8877 2.66663 20.0996 2.75442 20.2559 2.9107C20.4122 3.06698 20.5 3.27895 20.5 3.49996V16.1666C20.5 16.3876 20.4122 16.5996 20.2559 16.7559C20.0996 16.9122 19.8877 17 19.6667 17H17.1667ZM5.16917 7.66663L5.16667 19.6666H15.5V7.66663H5.16917ZM7.83333 15.3333H11.5833C11.6938 15.3333 11.7998 15.2894 11.878 15.2113C11.9561 15.1331 12 15.0271 12 14.9166C12 14.8061 11.9561 14.7001 11.878 14.622C11.7998 14.5439 11.6938 14.5 11.5833 14.5H9.08333C8.5308 14.5 8.0009 14.2805 7.61019 13.8898C7.21949 13.4991 7 12.9692 7 12.4166C7 11.8641 7.21949 11.3342 7.61019 10.9435C8.0009 10.5528 8.5308 10.3333 9.08333 10.3333H9.5V9.49996H11.1667V10.3333H12.8333V12H9.08333C8.97283 12 8.86685 12.0439 8.7887 12.122C8.71056 12.2001 8.66667 12.3061 8.66667 12.4166C8.66667 12.5271 8.71056 12.6331 8.7887 12.7113C8.86685 12.7894 8.97283 12.8333 9.08333 12.8333H11.5833C12.1359 12.8333 12.6658 13.0528 13.0565 13.4435C13.4472 13.8342 13.6667 14.3641 13.6667 14.9166C13.6667 15.4692 13.4472 15.9991 13.0565 16.3898C12.6658 16.7805 12.1359 17 11.5833 17H11.1667V17.8333H9.5V17H7.83333V15.3333Z" fill="#4B4F54"/>
</svg>
