<svg width="24" height="24" viewBox="0 0 24 24" fill="none" xmlns="http://www.w3.org/2000/svg">
<path fill-rule="evenodd" clip-rule="evenodd" d="M15 1H9V4H15V1ZM7.5 2.5H6C5.44772 2.5 5 2.94772 5 3.5V17.5C5 18.0523 5.44772 18.5 6 18.5L7.25 18.5L7.25 21.5C7.25 21.6989 7.32902 21.8897 7.46967 22.0303C7.61032 22.171 7.80109 22.25 8 22.25L16 22.25C16.4142 22.25 16.75 21.9142 16.75 21.5V18.5H18C18.5523 18.5 19 18.0523 19 17.5V3.5C19 2.94772 18.5523 2.5 18 2.5H16.5005V4H17.5V17H6.5V4H7.5V2.5ZM8.75 20.75L8.75 18.5L15.25 18.5V20.75L8.75 20.75ZM8.26172 14H15.7438V15.5H8.26172V14ZM8.25 10V6H15.75V10H8.25ZM9.75 8.49999L14.25 8.5V7.5H9.75V8.49999Z" fill="#4B4F54"/>
</svg>
