<svg width="24" height="24" viewBox="0 0 24 24" fill="none" xmlns="http://www.w3.org/2000/svg">
<path d="M11.1667 7.83317H12.8333V16.1665H11.1667V7.83317ZM14.5 11.1665H16.1667V16.1665H14.5V11.1665ZM7.83333 12.8332H9.5V16.1665H7.83333V12.8332ZM14.5 5.33317H6.16667V18.6665H17.8333V8.6665H14.5V5.33317ZM4.5 4.49317C4.5 4.0365 4.8725 3.6665 5.3325 3.6665H15.3333L19.5 7.83317V19.494C19.5008 19.6034 19.48 19.712 19.4388 19.8134C19.3976 19.9148 19.3369 20.007 19.2601 20.085C19.1832 20.1629 19.0918 20.2249 18.991 20.2675C18.8902 20.3101 18.7819 20.3324 18.6725 20.3332H5.3275C5.10865 20.3316 4.89918 20.2441 4.74435 20.0894C4.58951 19.9347 4.50175 19.7254 4.5 19.5065V4.49317Z" fill="#4B4F54"/>
</svg>
