<svg width="24" height="24" viewBox="0 0 24 24" fill="none" xmlns="http://www.w3.org/2000/svg">
<path d="M4 20C4 16.4233 6.89949 13.5238 10.4762 13.5238C14.0529 13.5238 16.9524 16.4233 16.9524 20H15.3333C15.3333 17.3175 13.1587 15.1429 10.4762 15.1429C7.79366 15.1429 5.61905 17.3175 5.61905 20H4ZM10.4762 12.7143C7.79262 12.7143 5.61905 10.5407 5.61905 7.85714C5.61905 5.17357 7.79262 3 10.4762 3C13.1598 3 15.3333 5.17357 15.3333 7.85714C15.3333 10.5407 13.1598 12.7143 10.4762 12.7143ZM10.4762 11.0952C12.2652 11.0952 13.7143 9.64619 13.7143 7.85714C13.7143 6.0681 12.2652 4.61905 10.4762 4.61905C8.68714 4.61905 7.2381 6.0681 7.2381 7.85714C7.2381 9.64619 8.68714 11.0952 10.4762 11.0952ZM17.182 14.0927C19.4331 15.1073 21 17.3707 21 20H19.381C19.381 18.028 18.2058 16.3305 16.5175 15.5696L17.182 14.0927ZM16.6255 4.95355C18.2431 5.62045 19.381 7.21245 19.381 9.07143C19.381 11.3949 17.6034 13.3014 15.3333 13.5057V11.8761C16.7069 11.6799 17.7619 10.4994 17.7619 9.07143C17.7619 7.95376 17.1156 6.98774 16.176 6.52657L16.6255 4.95355Z" fill="#4B4F54"/>
</svg>
