<svg width="24" height="24" viewBox="0 0 24 24" fill="none" xmlns="http://www.w3.org/2000/svg">
<path fill-rule="evenodd" clip-rule="evenodd" d="M12.19 18.63C15.7467 18.63 18.63 15.7467 18.63 12.19C18.63 8.63329 15.7467 5.75 12.19 5.75C8.63329 5.75 5.75 8.63329 5.75 12.19C5.75 15.7467 8.63329 18.63 12.19 18.63ZM12.19 20.38C16.7132 20.38 20.38 16.7132 20.38 12.19C20.38 7.66679 16.7132 4 12.19 4C7.66679 4 4 7.66679 4 12.19C4 16.7132 7.66679 20.38 12.19 20.38Z" fill="#4B4F54"/>
<path fill-rule="evenodd" clip-rule="evenodd" d="M14.4937 8.25653C14.152 7.91482 13.598 7.91482 13.2563 8.25653C12.9146 8.59823 12.9146 9.15225 13.2563 9.49396L13.7626 10.0002H8.875C8.39175 10.0002 8 10.392 8 10.8752C8 11.3585 8.39175 11.7502 8.875 11.7502H15.875C16.2289 11.7502 16.548 11.5371 16.6834 11.2101C16.8188 10.8831 16.744 10.5068 16.4937 10.2565L14.4937 8.25653ZM10.2563 16.4938C10.598 16.8355 11.152 16.8355 11.4937 16.4938C11.8355 16.1521 11.8355 15.5981 11.4937 15.2564L10.9875 14.7501H15.875C16.3583 14.7501 16.75 14.3584 16.75 13.8751C16.75 13.3919 16.3583 13.0001 15.875 13.0001H8.87503C8.52112 13.0001 8.20206 13.2133 8.06663 13.5403C7.9312 13.8672 8.00606 14.2436 8.25631 14.4938L10.2563 16.4938Z" fill="#4B4F54"/>
</svg>
