<svg width="24" height="24" viewBox="0 0 24 24" fill="none" xmlns="http://www.w3.org/2000/svg">
<g clip-path="url(#clip0_1922_7817)">
<path d="M5.67591 4.25667C9.60392 1.03828 15.4094 1.26236 19.076 4.92893C22.9812 8.83418 22.9812 15.1658 19.076 19.0711C15.1707 22.9763 8.83906 22.9763 4.93382 19.0711C2.40932 16.5466 1.51676 13.0081 2.25611 9.76666L2.33275 9.45394L4.26718 9.96315C3.56967 12.623 4.26329 15.5721 6.34803 17.6569C9.47222 20.781 14.5375 20.781 17.6617 17.6569C20.7859 14.5327 20.7859 9.46734 17.6617 6.34315C14.8441 3.5255 10.4475 3.24903 7.32006 5.51375L7.09886 5.67983L8.1158 6.6967L3.5196 7.75736L4.58026 3.16117L5.67591 4.25667Z" fill="#7F8286"/>
<path d="M16.008 15.474V17.042H9.218L8.91 16.034C9.33 15.6233 9.638 15.208 9.834 14.788C10.03 14.3587 10.128 13.8267 10.128 13.192C10.128 13.1267 10.1187 13.0193 10.1 12.87H8.546V11.526H9.708C9.52133 10.8913 9.428 10.3173 9.428 9.804C9.428 9.16933 9.56333 8.62333 9.834 8.166C10.114 7.69933 10.5013 7.34467 10.996 7.102C11.4907 6.85933 12.06 6.738 12.704 6.738C13.74 6.738 14.5287 7.02733 15.07 7.606C15.6207 8.17533 15.91 8.908 15.938 9.804H14.132C14.1227 9.356 14.006 9.006 13.782 8.754C13.558 8.49267 13.208 8.362 12.732 8.362C12.2933 8.362 11.9433 8.49267 11.682 8.754C11.43 9.01533 11.304 9.41667 11.304 9.958C11.304 10.2007 11.3273 10.4433 11.374 10.686C11.43 10.9193 11.5093 11.1993 11.612 11.526H14.244V12.87H11.962C11.9807 13.0193 11.99 13.1313 11.99 13.206C11.99 13.6073 11.9107 14.0087 11.752 14.41C11.6027 14.802 11.3693 15.1567 11.052 15.474H16.008Z" fill="#7F8286"/>
</g>
<defs>
<clipPath id="clip0_1922_7817">
<rect width="24" height="24" fill="white"/>
</clipPath>
</defs>
</svg>
