<svg width="24" height="24" viewBox="0 0 24 24" fill="none" xmlns="http://www.w3.org/2000/svg">
<g clip-path="url(#clip0_1922_3009)">
<path d="M5.67591 4.25667C9.60392 1.03828 15.4094 1.26236 19.076 4.92893C22.9812 8.83418 22.9812 15.1658 19.076 19.0711C15.1707 22.9763 8.83906 22.9763 4.93382 19.0711C2.40932 16.5466 1.51676 13.0081 2.25611 9.76666L2.33275 9.45394L4.26718 9.96315C3.56967 12.623 4.26329 15.5721 6.34803 17.6569C9.47222 20.781 14.5375 20.781 17.6617 17.6569C20.7859 14.5327 20.7859 9.46734 17.6617 6.34315C14.8441 3.5255 10.4475 3.24903 7.32006 5.51375L7.09886 5.67983L8.1158 6.6967L3.5196 7.75736L4.58026 3.16117L5.67591 4.25667Z" fill="#7F8286"/>
<path d="M12.6102 15.292C13.1422 15.292 13.6089 15.1753 14.0102 14.942C14.4115 14.7087 14.7289 14.368 14.9622 13.92H17.2022C16.8755 14.9187 16.3015 15.698 15.4802 16.258C14.6682 16.8087 13.7162 17.084 12.6242 17.084C11.5042 17.084 10.5195 16.7853 9.6702 16.188C8.8302 15.5813 8.24687 14.774 7.9202 13.766H6.7302V12.604H7.6962C7.67754 12.38 7.6682 12.212 7.6682 12.1C7.6682 11.9693 7.67754 11.792 7.6962 11.568H6.7302V10.406H7.9342C8.26087 9.398 8.8442 8.59533 9.6842 7.998C10.5335 7.40067 11.5135 7.102 12.6242 7.102C13.7162 7.102 14.6682 7.382 15.4802 7.942C16.3015 8.502 16.8755 9.27667 17.2022 10.266H14.9622C14.7289 9.818 14.4115 9.482 14.0102 9.258C13.6089 9.02467 13.1422 8.908 12.6102 8.908C12.0409 8.908 11.5322 9.03867 11.0842 9.3C10.6455 9.56133 10.3049 9.93 10.0622 10.406H12.7502V11.568H9.7122C9.69354 11.792 9.6842 11.9693 9.6842 12.1C9.6842 12.212 9.69354 12.38 9.7122 12.604H12.7502V13.766H10.0482C10.2909 14.242 10.6362 14.6153 11.0842 14.886C11.5322 15.1567 12.0409 15.292 12.6102 15.292Z" fill="#7F8286"/>
</g>
<defs>
<clipPath id="clip0_1922_3009">
<rect width="24" height="24" fill="white"/>
</clipPath>
</defs>
</svg>
