<svg width="24" height="24" viewBox="0 0 24 24" fill="none" xmlns="http://www.w3.org/2000/svg">
    <path opacity="0.125"
        d="M17.9399 4.36325L14.8851 7.41795C14.4165 7.88658 14.4165 8.64638 14.8851 9.11501C15.3538 9.58364 16.1136 9.58364 16.5822 9.11501L19.6369 6.06031C20.1055 5.59168 20.1055 4.83188 19.6369 4.36325C19.1683 3.89462 18.4085 3.89462 17.9399 4.36325Z"
        fill="#555555" />
    <path opacity="0.25"
        d="M21.6001 10.8H17.2801C16.6173 10.8 16.0801 11.3372 16.0801 12C16.0801 12.6627 16.6173 13.2 17.2801 13.2H21.6001C22.2628 13.2 22.8001 12.6627 22.8001 12C22.8001 11.3372 22.2628 10.8 21.6001 10.8Z"
        fill="#555555" />
    <path opacity="0.375"
        d="M19.6366 17.9397L16.5819 14.885C16.1133 14.4163 15.3535 14.4163 14.8849 14.885C14.4162 15.3536 14.4162 16.1134 14.8849 16.582L17.9396 19.6367C18.4082 20.1054 19.168 20.1054 19.6366 19.6367C20.1053 19.1681 20.1053 18.4083 19.6366 17.9397Z"
        fill="#555555" />
    <path opacity="0.5"
        d="M13.2002 21.6V17.28C13.2002 16.6173 12.6629 16.08 12.0002 16.08C11.3375 16.08 10.8002 16.6173 10.8002 17.28V21.6C10.8002 22.2628 11.3375 22.8 12.0002 22.8C12.6629 22.8 13.2002 22.2628 13.2002 21.6Z"
        fill="#555555" />
    <path opacity="0.625"
        d="M6.06015 19.6367L9.11485 16.582C9.58348 16.1134 9.58348 15.3536 9.11485 14.885C8.64622 14.4164 7.88642 14.4164 7.41779 14.885L4.36309 17.9397C3.89446 18.4083 3.89446 19.1681 4.36309 19.6367C4.83172 20.1054 5.59152 20.1054 6.06015 19.6367Z"
        fill="#555555" />
    <path opacity="0.75"
        d="M2.39992 13.2H6.71992C7.38266 13.2 7.91992 12.6628 7.91992 12C7.91992 11.3373 7.38266 10.8 6.71992 10.8H2.39992C1.73718 10.8 1.19992 11.3373 1.19992 12C1.19992 12.6628 1.73718 13.2 2.39992 13.2Z"
        fill="#555555" />
    <path opacity="0.875"
        d="M4.36337 6.06033L7.41807 9.11503C7.8867 9.58366 8.6465 9.58366 9.11513 9.11503C9.58376 8.6464 9.58376 7.88661 9.11513 7.41798L6.06043 4.36328C5.5918 3.89465 4.832 3.89465 4.36337 4.36328C3.89474 4.83191 3.89474 5.5917 4.36337 6.06033Z"
        fill="#555555" />
</svg>
