<svg width="24" height="24" viewBox="0 0 24 24" fill="none" xmlns="http://www.w3.org/2000/svg">

    <path fill-rule="evenodd" clip-rule="evenodd" fill="#000000"
        d="M5.214 14.522s4.505 4.502 6.259 6.255c0.146 0.147 0.338 0.22 0.53 0.22 s0.384-0.073 0.53 -0.22c1.754-1.752 6.249-6.244 6.249-6.244 0.144 -0.144 0.216 -0.334 0.217 -0.523 0-0.193-0.074-0.386-0.221-0.534-0.293-0.293-0.766-0.294-1.057-0.004l-4.968 4.968v-14.692c0-0.414-0.336-0.75-0.75-0.75s-0.75 0.336 -0.75 0.75 v14.692l-4.979-4.978c-0.289-0.289-0.761-0.287-1.054 0.006 -0.148 0.148 -0.222 0.341 -0.221 0.534 0 0.189 0.071 0.377 0.215 0.52z" />
</svg>