<svg width="14" height="14" viewBox="0 0 14 14" fill="none" xmlns="http://www.w3.org/2000/svg">
<path d="M10.1713 11.013C9.22297 11.6265 8.12279 11.9514 6.99984 11.9496C4.09261 11.9496 1.67387 9.81577 1.1665 7.00002C1.39837 5.71903 2.03006 4.54883 2.96735 3.66402L1.28027 1.94487L2.0432 1.16669L12.7183 12.0557L11.9554 12.8334L10.1707 11.013H10.1713ZM3.72974 4.44275C2.997 5.12226 2.48657 6.01494 2.2675 7.00002C2.43588 7.7515 2.77393 8.45252 3.25473 9.04727C3.73553 9.64201 4.34582 10.1141 5.037 10.4258C5.72818 10.7376 6.48118 10.8805 7.23604 10.8431C7.99091 10.8058 8.7268 10.5892 9.38515 10.2106L8.2917 9.09533C7.82622 9.39441 7.27492 9.52325 6.72822 9.46074C6.18152 9.39823 5.67187 9.14808 5.28287 8.7513C4.89387 8.35453 4.64862 7.83469 4.58733 7.27706C4.52605 6.71944 4.65237 6.15712 4.94558 5.68234L3.72974 4.44275ZM7.49264 8.28031L5.74464 6.49736C5.6487 6.74646 5.62612 7.01869 5.67967 7.28068C5.73322 7.54268 5.86057 7.78303 6.0461 7.97227C6.23163 8.16151 6.46728 8.2914 6.72413 8.34602C6.98099 8.40064 7.24789 8.37761 7.4921 8.27976L7.49264 8.28031ZM11.7483 9.5254L10.9768 8.73897C11.3372 8.21503 11.5938 7.62432 11.7322 7.00002C11.5856 6.34543 11.3101 5.72806 10.9224 5.18545C10.5347 4.64284 10.0428 4.18632 9.47674 3.84363C8.91065 3.50095 8.28215 3.27925 7.62945 3.19203C6.97675 3.1048 6.31347 3.15387 5.67994 3.33624L4.82912 2.46842C5.50147 2.19895 6.23421 2.05046 6.99984 2.05046C9.90707 2.05046 12.3258 4.18427 12.8332 7.00002C12.668 7.91607 12.2966 8.78053 11.7483 9.5254ZM6.85049 4.52964C7.19368 4.50801 7.53745 4.56102 7.85904 4.68517C8.18062 4.80933 8.47265 5.00178 8.71579 5.24977C8.95892 5.49777 9.1476 5.79564 9.26932 6.12365C9.39104 6.45166 9.44302 6.80231 9.42181 7.15236L6.84995 4.52964H6.85049Z" fill="#4B4F54"/>
</svg>
