<svg width="14" height="14" viewBox="0 0 14 14" fill="none" xmlns="http://www.w3.org/2000/svg">
<path d="M4.12437 5.11682L5.31081 6.30325L4.64929 6.96477L2.3335 4.64898L4.64929 2.33319L5.31081 2.99471L4.12437 4.18114H7.47969C8.47232 4.18114 9.42429 4.57546 10.1262 5.27735C10.8281 5.97924 11.2224 6.93121 11.2224 7.92383C11.2224 8.91646 10.8281 9.86843 10.1262 10.5703C9.42429 11.2722 8.47232 11.6665 7.47969 11.6665H3.26917V10.7309H7.47969C8.22416 10.7309 8.93814 10.4351 9.46456 9.9087C9.99097 9.38228 10.2867 8.6683 10.2867 7.92383C10.2867 7.17937 9.99097 6.46539 9.46456 5.93897C8.93814 5.41255 8.22416 5.11682 7.47969 5.11682H4.12437Z" fill="#4B4F54"/>
</svg>
