<svg width="8" height="7" viewBox="0 0 8 7" fill="none" xmlns="http://www.w3.org/2000/svg">
    <path
        d="M7.65103 3.5C7.65103 3.78125 7.43228 4 7.16666 4H2.36978L4.01041 5.65625C4.21353 5.84375 4.21353 6.17188 4.01041 6.35938C3.91666 6.45312 3.79166 6.5 3.66666 6.5C3.52603 6.5 3.40103 6.45312 3.30728 6.35938L0.807281 3.85938C0.604156 3.67188 0.604156 3.34375 0.807281 3.15625L3.30728 0.65625C3.49478 0.453125 3.82291 0.453125 4.01041 0.65625C4.21353 0.84375 4.21353 1.17188 4.01041 1.35938L2.36978 3H7.16666C7.43228 3 7.65103 3.23438 7.65103 3.5Z"
        fill="#1BB003" />
</svg>
