<svg width="8" height="7" viewBox="0 0 8 7" fill="none" xmlns="http://www.w3.org/2000/svg">
    <path
        d="M7.17709 3.85938L4.67709 6.35938C4.58334 6.45312 4.45834 6.5 4.33334 6.5C4.19272 6.5 4.06772 6.45312 3.97397 6.35938C3.77084 6.17188 3.77084 5.84375 3.97397 5.65625L5.61459 4H0.833344C0.552094 4 0.333344 3.78125 0.333344 3.5C0.333344 3.23438 0.552094 3 0.833344 3H5.61459L3.97397 1.35938C3.77084 1.17188 3.77084 0.84375 3.97397 0.65625C4.16147 0.453125 4.48959 0.453125 4.67709 0.65625L7.17709 3.15625C7.38022 3.34375 7.38022 3.67188 7.17709 3.85938Z"
        fill="#D00D0D" />
</svg>
