<svg width="8" height="7" viewBox="0 0 8 7" fill="none" xmlns="http://www.w3.org/2000/svg">
    <path
        d="M6.84375 4.35938L4.34375 6.85938C4.25 6.95312 4.125 7 4 7C3.85938 7 3.73438 6.95312 3.64062 6.85938L1.14062 4.35938C0.9375 4.17188 0.9375 3.84375 1.14062 3.65625C1.32812 3.45312 1.65625 3.45312 1.84375 3.65625L3.5 5.29688V0.5C3.5 0.234375 3.71875 0.015625 3.98438 0.015625C4.23438 0.015625 4.5 0.234375 4.5 0.5V5.29688L6.14062 3.65625C6.32812 3.45312 6.65625 3.45312 6.84375 3.65625C7.04688 3.84375 7.04688 4.17188 6.84375 4.35938Z"
        fill="#D00D0D" />
</svg>
