<svg width="8" height="9" viewBox="0 0 8 9" fill="none" xmlns="http://www.w3.org/2000/svg">
    <path
        d="M6.84375 4.35938C6.75 4.45312 6.625 4.5 6.5 4.5C6.35938 4.5 6.23438 4.45312 6.14062 4.35938L4.5 2.71875V7.5C4.5 7.78125 4.26562 8 4 8C3.75 8 3.5 7.78125 3.5 7.5V2.71875L1.84375 4.35938C1.65625 4.5625 1.32812 4.5625 1.14062 4.35938C0.9375 4.17188 0.9375 3.84375 1.14062 3.65625L3.64062 1.15625C3.82812 0.953125 4.15625 0.953125 4.34375 1.15625L6.84375 3.65625C7.04688 3.84375 7.04688 4.17188 6.84375 4.35938Z"
        fill="#1BB003" />
</svg>
