<svg width="18" height="16" viewBox="0 0 18 16" fill="none" xmlns="http://www.w3.org/2000/svg">
<path d="M8.59375 0.09375C8.84375 0 9.125 0 9.375 0.09375L16.375 3.09375C16.8125 3.28125 17.0625 3.75 16.9688 4.21875C16.875 4.6875 16.4688 5 15.9688 5V5.25C15.9688 5.6875 15.6562 6 15.2188 6H2.71875C2.3125 6 1.96875 5.6875 1.96875 5.25V5C1.5 5 1.09375 4.6875 1 4.21875C0.90625 3.75 1.15625 3.28125 1.59375 3.09375L8.59375 0.09375ZM9 4C9.53125 4 10 3.5625 10 3C10 2.46875 9.53125 2 9 2C8.4375 2 8 2.46875 8 3C8 3.5625 8.4375 4 9 4ZM4.96875 13H6.21875V7H8.21875V13H9.75V7H11.75V13H13V7H15V13.1562C15 13.1562 15.0312 13.1562 15.0312 13.1875L16.5312 14.1875C16.9062 14.4375 17.0625 14.875 16.9375 15.3125C16.8125 15.7188 16.4375 16 16 16H1.96875C1.53125 16 1.15625 15.7188 1.03125 15.3125C0.90625 14.875 1.0625 14.4375 1.4375 14.1875L2.9375 13.1875C2.9375 13.1562 2.96875 13.1562 2.96875 13.1562V7H4.96875V13Z" fill="#1E1E1E"/>
</svg>
