<svg width="17" height="17" viewBox="0 0 17 17" fill="none" xmlns="http://www.w3.org/2000/svg">
    <path
        d="M5.1827 14.1923H6.0673V12.1923H8.0673V11.3077H6.0673V9.3077H5.1827V11.3077H3.1827V12.1923H5.1827V14.1923ZM10.1827 13.4423H14.5673V12.5577H10.1827V13.4423ZM10.1827 10.9423H14.5673V10.0577H10.1827V10.9423ZM10.975 6.98848L12.375 5.58848L13.775 6.98848L14.4019 6.36155L13.0019 4.95L14.4019 3.55L13.775 2.92307L12.375 4.32307L10.975 2.92307L10.3481 3.55L11.7481 4.95L10.3481 6.36155L10.975 6.98848ZM3.4327 5.3923H7.8173V4.5077H3.4327V5.3923ZM2.49038 16.5C2.03013 16.5 1.64583 16.3458 1.3375 16.0375C1.02917 15.7292 0.875 15.3449 0.875 14.8846V2.11537C0.875 1.65512 1.02917 1.27083 1.3375 0.9625C1.64583 0.654167 2.03013 0.5 2.49038 0.5H15.2596C15.7199 0.5 16.1042 0.654167 16.4125 0.9625C16.7208 1.27083 16.875 1.65512 16.875 2.11537V14.8846C16.875 15.3449 16.7208 15.7292 16.4125 16.0375C16.1042 16.3458 15.7199 16.5 15.2596 16.5H2.49038ZM2.49038 15.5H15.2596C15.4135 15.5 15.5545 15.4359 15.6827 15.3077C15.8109 15.1795 15.875 15.0385 15.875 14.8846V2.11537C15.875 1.96154 15.8109 1.82052 15.6827 1.6923C15.5545 1.5641 15.4135 1.5 15.2596 1.5H2.49038C2.33654 1.5 2.19552 1.5641 2.0673 1.6923C1.9391 1.82052 1.875 1.96154 1.875 2.11537V14.8846C1.875 15.0385 1.9391 15.1795 2.0673 15.3077C2.19552 15.4359 2.33654 15.5 2.49038 15.5Z"
        fill="#D00D0D" />
</svg>
