<svg width="24" height="16" viewBox="0 0 24 16" fill="none" xmlns="http://www.w3.org/2000/svg">
<path d="M23.25 13C23.25 14.4062 22.1172 15.5 20.75 15.5H8.75781C8.09375 15.5 7.46875 15.2656 7 14.7969L1.10156 8.89844C0.867188 8.66406 0.75 8.35156 0.75 8C0.75 7.6875 0.867188 7.375 1.10156 7.14062L7 1.24219C7.46875 0.773438 8.09375 0.5 8.75781 0.5H20.75C22.1172 0.5 23.25 1.63281 23.25 3V13ZM11.3359 6.16406L13.1719 8L11.3359 9.83594C10.9453 10.2266 10.9453 10.8125 11.3359 11.1641C11.6875 11.5547 12.2734 11.5547 12.625 11.1641L14.5 9.32812L16.3359 11.1641C16.6875 11.5547 17.2734 11.5547 17.625 11.1641C18.0156 10.8125 18.0156 10.2266 17.625 9.83594L15.7891 8L17.625 6.16406C18.0156 5.8125 18.0156 5.22656 17.625 4.83594C17.2734 4.48438 16.6875 4.48438 16.3359 4.83594L14.5 6.71094L12.625 4.83594C12.2734 4.48438 11.6875 4.48438 11.3359 4.83594C10.9453 5.22656 10.9453 5.8125 11.3359 6.16406Z" fill="white"/>
</svg>
