<svg width="20" height="20" viewBox="0 0 20 20" fill="none" xmlns="http://www.w3.org/2000/svg">
<path d="M15.8594 14.1406C16.3672 14.6094 16.3672 15.4297 15.8594 15.8984C15.625 16.1328 15.3125 16.25 15 16.25C14.6484 16.25 14.3359 16.1328 14.1016 15.8984L10 11.7969L5.85938 15.8984C5.625 16.1328 5.3125 16.25 5 16.25C4.64844 16.25 4.33594 16.1328 4.10156 15.8984C3.59375 15.4297 3.59375 14.6094 4.10156 14.1406L8.20312 10L4.10156 5.89844C3.59375 5.42969 3.59375 4.60938 4.10156 4.14062C4.57031 3.63281 5.39062 3.63281 5.85938 4.14062L10 8.24219L14.1016 4.14062C14.5703 3.63281 15.3906 3.63281 15.8594 4.14062C16.3672 4.60938 16.3672 5.42969 15.8594 5.89844L11.7578 10.0391L15.8594 14.1406Z" fill="#1E1E1E"/>
</svg>
