<svg width="24" height="24" viewBox="0 0 24 24" fill="none" xmlns="http://www.w3.org/2000/svg">
    <mask id="mask0_529_3041" style="mask-type:alpha" maskUnits="userSpaceOnUse" x="0" y="0"
        width="24" height="24">
        <rect width="24" height="24" fill="#D9D9D9" />
    </mask>
    <g mask="url(#mask0_529_3041)">
        <path
            d="M12 22C9.96666 22 8.14422 21.4596 6.53269 20.3789C4.92114 19.2981 3.71152 17.8442 2.90384 16.0173V19.3077H1.90384V14.3077H6.90384V15.3077H3.69806C4.34423 17.0205 5.42725 18.3974 6.94711 19.4385C8.46698 20.4795 10.1513 21 12 21C13.1987 21 14.3247 20.7849 15.3779 20.3548C16.4311 19.9247 17.3586 19.3311 18.1606 18.574C18.9625 17.817 19.6138 16.9183 20.1144 15.8779C20.615 14.8375 20.9038 13.7115 20.9808 12.5H21.9808C21.9167 13.8244 21.6099 15.0635 21.0606 16.2173C20.5112 17.3712 19.791 18.3776 18.9 19.2366C18.009 20.0955 16.9705 20.7708 15.7846 21.2625C14.5987 21.7542 13.3372 22 12 22ZM11.4846 18.6154V17.3923C10.8038 17.2346 10.224 16.9644 9.74519 16.5817C9.26634 16.199 8.88461 15.6654 8.59999 14.9808L9.48076 14.6C9.75768 15.2192 10.1279 15.6965 10.5913 16.0317C11.0548 16.367 11.5744 16.5346 12.15 16.5346C12.7385 16.5346 13.2894 16.3798 13.8029 16.0702C14.3163 15.7606 14.5731 15.2538 14.5731 14.55C14.5731 13.9897 14.3881 13.55 14.0183 13.2308C13.6484 12.9115 12.9256 12.5539 11.85 12.1577C10.7769 11.7692 10.0144 11.359 9.56249 10.9269C9.11057 10.4949 8.88461 9.91923 8.88461 9.2C8.88461 8.59358 9.1125 8.03365 9.56826 7.5202C10.024 7.00673 10.6795 6.6859 11.5346 6.5577V5.38463H12.5154V6.5577C13.0384 6.59487 13.5266 6.77563 13.9798 7.1C14.433 7.42437 14.7769 7.82693 15.0115 8.3077L14.1423 8.65C13.932 8.29232 13.6577 7.99713 13.3192 7.76443C12.9808 7.53173 12.5577 7.41537 12.05 7.41537C11.3897 7.41537 10.8606 7.58525 10.4625 7.925C10.0644 8.26475 9.86536 8.68975 9.86536 9.2C9.86536 9.71025 10.0186 10.1032 10.325 10.3788C10.6314 10.6545 11.3359 10.9846 12.4385 11.3692C13.6385 11.8026 14.4513 12.266 14.8769 12.7596C15.3025 13.2532 15.5154 13.85 15.5154 14.55C15.5154 15.0205 15.4224 15.4327 15.2365 15.7866C15.0506 16.1404 14.8106 16.4337 14.5163 16.6664C14.2221 16.899 13.8949 17.0785 13.5346 17.2048C13.1743 17.3311 12.8179 17.4103 12.4654 17.4423V18.6154H11.4846ZM2.01921 11.5C2.10896 10.1115 2.43492 8.83718 2.99709 7.67693C3.55927 6.51666 4.29229 5.51345 5.19614 4.6673C6.09999 3.82115 7.13525 3.16506 8.30191 2.69902C9.46858 2.23301 10.7013 2 12 2C13.9949 2 15.8173 2.54358 17.4673 3.63075C19.1173 4.71793 20.3269 6.19422 21.0961 8.0596V4.6923H22.0961V9.6923H17.0961V8.6923H20.3019C19.6942 7.03077 18.6272 5.66667 17.1009 4.6C15.5747 3.53333 13.8743 3 12 3C10.8526 3 9.75544 3.20865 8.70864 3.62595C7.66184 4.04327 6.73107 4.62404 5.91634 5.36828C5.10159 6.11251 4.43428 7.00482 3.91441 8.0452C3.39455 9.08558 3.09615 10.2372 3.01921 11.5H2.01921Z"
            fill="#1C1B1F" />
    </g>
</svg>
