<svg width="48" height="48" viewBox="0 0 48 48" fill="none" xmlns="http://www.w3.org/2000/svg">
    <path fill-rule="evenodd" clip-rule="evenodd"
        d="M2.4375 13.1719V7.78125C2.4375 4.83469 4.83473 2.4375 7.78125 2.4375H13.1719C13.845 2.4375 14.3906 1.89183 14.3906 1.21875C14.3906 0.545672 13.845 0 13.1719 0H7.78125C3.49069 0 0 3.49064 0 7.78125V13.1719C0 13.845 0.545672 14.3906 1.21875 14.3906C1.89183 14.3906 2.4375 13.845 2.4375 13.1719ZM13.1719 45.5625C13.845 45.5625 14.3906 46.1082 14.3906 46.7812C14.3906 47.4543 13.845 48 13.1719 48H7.78125C3.49069 48 0 44.5093 0 40.2188V34.8281C0 34.155 0.545672 33.6094 1.21875 33.6094C1.89183 33.6094 2.4375 34.155 2.4375 34.8281V40.2188C2.4375 43.1653 4.83473 45.5625 7.78125 45.5625H13.1719ZM48 34.8281V40.2188C48 44.5093 44.5093 48 40.2188 48H34.8281C34.155 48 33.6094 47.4543 33.6094 46.7812C33.6094 46.1082 34.155 45.5625 34.8281 45.5625H40.2188C43.1653 45.5625 45.5625 43.1653 45.5625 40.2188V34.8281C45.5625 34.155 46.1082 33.6094 46.7812 33.6094C47.4543 33.6094 48 34.155 48 34.8281ZM48 7.78125V13.1719C48 13.845 47.4543 14.3906 46.7812 14.3906C46.1082 14.3906 45.5625 13.845 45.5625 13.1719V7.78125C45.5625 4.83469 43.1653 2.4375 40.2188 2.4375H34.8281C34.155 2.4375 33.6094 1.89183 33.6094 1.21875C33.6094 0.545672 34.155 0 34.8281 0H40.2188C44.5093 0 48 3.49064 48 7.78125ZM32.4106 35.4766C32.9241 35.0023 32.9558 34.2016 32.4815 33.6881C32.0072 33.1747 31.2065 33.1429 30.6931 33.6172C28.866 35.3048 26.489 36.2343 23.9999 36.2343C21.5108 36.2343 19.1338 35.3048 17.3067 33.6172C16.7931 33.1429 15.9926 33.1747 15.5182 33.6881C15.044 34.2016 15.0757 35.0023 15.5892 35.4766C17.8853 37.5975 20.8723 38.7655 23.9999 38.7655C27.1275 38.7655 30.1145 37.5975 32.4106 35.4766ZM26.5312 18.0938V27.0938C26.5312 28.8772 25.0803 30.3281 23.2969 30.3281H22.2656C21.5666 30.3281 21 29.7615 21 29.0625C21 28.3635 21.5666 27.7969 22.2656 27.7969H23.2969C23.6846 27.7969 24 27.4815 24 27.0938V18.0938C24 17.3948 24.5666 16.8281 25.2656 16.8281C25.9646 16.8281 26.5312 17.3948 26.5312 18.0938ZM35.25 21.6328V18.0234C35.25 17.3633 34.7148 16.8281 34.0547 16.8281C33.3945 16.8281 32.8594 17.3633 32.8594 18.0234V21.6328C32.8594 22.293 33.3945 22.8281 34.0547 22.8281C34.7148 22.8281 35.25 22.293 35.25 21.6328ZM13.0312 21.6328C13.0312 22.293 13.5664 22.8281 14.2266 22.8281C14.8867 22.8281 15.4219 22.293 15.4219 21.6328V18.0234C15.4219 17.3633 14.8867 16.8281 14.2266 16.8281C13.5664 16.8281 13.0312 17.3633 13.0312 18.0234V21.6328Z"
        fill="#7F8286" />
</svg>
