<svg width="25" height="25" viewBox="0 0 25 25" fill="none" xmlns="http://www.w3.org/2000/svg">
<mask id="mask0_469_8529" style="mask-type:alpha" maskUnits="userSpaceOnUse" x="0" y="0" width="25" height="25">
<rect x="0.625" y="0.5" width="24" height="24" fill="#D9D9D9"/>
</mask>
<g mask="url(#mask0_469_8529)">
<path d="M10.2404 19V18H20.625V19H10.2404ZM10.2404 13V12H20.625V13H10.2404ZM10.2404 6.99999V5.99999H20.625V6.99999H10.2404ZM5.95192 19.8269C5.58702 19.8269 5.27464 19.697 5.01478 19.4371C4.75493 19.1773 4.625 18.8649 4.625 18.5C4.625 18.1351 4.75493 17.8227 5.01478 17.5628C5.27464 17.303 5.58702 17.1731 5.95192 17.1731C6.31682 17.1731 6.62921 17.303 6.88908 17.5628C7.14893 17.8227 7.27885 18.1351 7.27885 18.5C7.27885 18.8649 7.14893 19.1773 6.88908 19.4371C6.62921 19.697 6.31682 19.8269 5.95192 19.8269ZM5.95192 13.8269C5.58702 13.8269 5.27464 13.697 5.01478 13.4371C4.75493 13.1773 4.625 12.8649 4.625 12.5C4.625 12.1351 4.75493 11.8227 5.01478 11.5628C5.27464 11.303 5.58702 11.1731 5.95192 11.1731C6.31682 11.1731 6.62921 11.303 6.88908 11.5628C7.14893 11.8227 7.27885 12.1351 7.27885 12.5C7.27885 12.8649 7.14893 13.1773 6.88908 13.4371C6.62921 13.697 6.31682 13.8269 5.95192 13.8269ZM5.95192 7.82692C5.58702 7.82692 5.27464 7.69699 5.01478 7.43714C4.75493 7.17727 4.625 6.86489 4.625 6.49999C4.625 6.13509 4.75493 5.82271 5.01478 5.56284C5.27464 5.30299 5.58702 5.17307 5.95192 5.17307C6.31682 5.17307 6.62921 5.30299 6.88908 5.56284C7.14893 5.82271 7.27885 6.13509 7.27885 6.49999C7.27885 6.86489 7.14893 7.17727 6.88908 7.43714C6.62921 7.69699 6.31682 7.82692 5.95192 7.82692Z" fill="#0F0F0F"/>
</g>
</svg>
