<svg width="25" height="25" viewBox="0 0 25 25" fill="none" xmlns="http://www.w3.org/2000/svg">
<mask id="mask0_469_8535" style="mask-type:alpha" maskUnits="userSpaceOnUse" x="0" y="0" width="25" height="25">
<rect x="0.375" y="0.5" width="24" height="24" fill="#D9D9D9"/>
</mask>
<g mask="url(#mask0_469_8535)">
<path d="M4.99038 20.5C4.53013 20.5 4.14583 20.3458 3.8375 20.0375C3.52917 19.7292 3.375 19.3449 3.375 18.8846V8.5H4.375V18.8846C4.375 19.0385 4.4391 19.1795 4.5673 19.3077C4.69552 19.4359 4.83654 19.5 4.99038 19.5H18.375V20.5H4.99038ZM8.99038 16.5C8.53013 16.5 8.14583 16.3458 7.8375 16.0375C7.52917 15.7292 7.375 15.3449 7.375 14.8846V4.5H22.375V14.8846C22.375 15.3449 22.2208 15.7292 21.9125 16.0375C21.6042 16.3458 21.2199 16.5 20.7596 16.5H8.99038ZM8.99038 15.5H20.7596C20.9135 15.5 21.0545 15.4359 21.1827 15.3077C21.3109 15.1795 21.375 15.0385 21.375 14.8846V5.5H8.375V14.8846C8.375 15.0385 8.4391 15.1795 8.5673 15.3077C8.69552 15.4359 8.83654 15.5 8.99038 15.5ZM10.375 12.5H14.375V7.5H10.375V12.5ZM15.375 12.5H19.375V10.5H15.375V12.5ZM15.375 9.5H19.375V7.5H15.375V9.5Z" fill="#0F0F0F"/>
</g>
</svg>
