<svg width="32" height="32" viewBox="0 0 32 32" fill="none" xmlns="http://www.w3.org/2000/svg">
<path d="M6.69581 10.8866C6.35206 11.2934 5.80206 11.6142 5.25206 11.5684C5.18331 11.0184 5.45258 10.434 5.76768 10.073C6.11143 9.65482 6.713 9.3569 7.19998 9.33398C7.25727 9.9069 7.03383 10.4684 6.69581 10.8866ZM7.19425 11.6772C6.39789 11.6314 5.71612 12.1298 5.338 12.1298C4.95414 12.1298 4.3755 11.7001 3.74529 11.7116C2.92602 11.723 2.16404 12.1871 1.74581 12.9262C0.886435 14.4043 1.52237 16.5928 2.3531 17.796C2.75987 18.3918 3.24685 19.0449 3.88852 19.022C4.49581 18.9991 4.73643 18.6267 5.46977 18.6267C6.20883 18.6267 6.42081 19.022 7.06248 19.0105C7.72706 18.9991 8.14529 18.4147 8.55206 17.8189C9.01612 17.1428 9.20518 16.484 9.21664 16.4496C9.20518 16.4382 7.93331 15.9512 7.92185 14.4845C7.91039 13.2585 8.92446 12.6741 8.97029 12.6397C8.39737 11.7918 7.50362 11.7001 7.19425 11.6772ZM11.7948 10.0158V18.9475H13.1812V15.8939H15.1005C16.8536 15.8939 18.0854 14.6908 18.0854 12.9491C18.0854 11.2074 16.8765 10.0158 15.1463 10.0158H11.7948ZM13.1812 11.1845H14.7797C15.9828 11.1845 16.6703 11.8262 16.6703 12.9548C16.6703 14.0835 15.9828 14.7309 14.7739 14.7309H13.1812V11.1845ZM20.6177 19.0163C21.4885 19.0163 22.2963 18.5751 22.663 17.8762H22.6916V18.9475H23.975V14.5017C23.975 13.2126 22.9437 12.3819 21.3567 12.3819C19.8844 12.3819 18.7958 13.2241 18.7557 14.3814H20.0047C20.1078 13.8314 20.6177 13.4704 21.3166 13.4704C22.1646 13.4704 22.6401 13.8658 22.6401 14.5934V15.0861L20.9099 15.1892C19.3 15.2866 18.4291 15.9454 18.4291 17.0913C18.4291 18.2486 19.3286 19.0163 20.6177 19.0163ZM20.9901 17.9564C20.251 17.9564 19.7812 17.6012 19.7812 17.0569C19.7812 16.4954 20.2338 16.1689 21.0989 16.1173L22.6401 16.0199V16.5241C22.6401 17.3605 21.9297 17.9564 20.9901 17.9564ZM25.688 21.3767C27.0401 21.3767 27.676 20.8611 28.2317 19.297L30.6666 12.4678H29.2573L27.6245 17.7444H27.5958L25.963 12.4678H24.5135L26.8625 18.9704L26.7364 19.3658C26.5245 20.0361 26.1807 20.2939 25.5677 20.2939C25.4588 20.2939 25.2469 20.2824 25.1609 20.271V21.3423C25.2411 21.3652 25.5849 21.3767 25.688 21.3767Z" fill="black"/>
</svg>
