<svg width="14" height="14" viewBox="0 0 14 14" fill="none" xmlns="http://www.w3.org/2000/svg">
<path d="M7.28777 2.57638L11.9185 10.5972C11.9611 10.6711 11.9836 10.7549 11.9836 10.8403C11.9836 10.9256 11.9611 11.0094 11.9185 11.0833C11.8758 11.1572 11.8144 11.2186 11.7405 11.2612C11.6666 11.3039 11.5828 11.3264 11.4975 11.3264H2.2361C2.15077 11.3264 2.06694 11.3039 1.99305 11.2612C1.91915 11.2186 1.85779 11.1572 1.81512 11.0833C1.77246 11.0094 1.75 10.9256 1.75 10.8403C1.75 10.7549 1.77246 10.6711 1.81513 10.5972L6.44582 2.57638C6.48849 2.50249 6.54985 2.44112 6.62375 2.39846C6.69764 2.3558 6.78147 2.33334 6.86679 2.33334C6.95212 2.33334 7.03594 2.3558 7.10984 2.39846C7.18373 2.44112 7.2451 2.50249 7.28777 2.57638ZM3.07804 10.3542H10.6555L6.86679 3.79166L3.07804 10.3542ZM6.38068 8.89582H7.3529V9.86804H6.38068V8.89582ZM6.38068 5.49304H7.3529V7.9236H6.38068V5.49304Z" fill="#4B4F54"/>
</svg>
