<svg width="20" height="20" viewBox="0 0 20 20" fill="none" xmlns="http://www.w3.org/2000/svg">
<path d="M3.3335 18.3333C3.3335 14.6513 6.31826 11.6666 10.0002 11.6666C13.6821 11.6666 16.6668 14.6513 16.6668 18.3333H15.0002C15.0002 15.5718 12.7616 13.3333 10.0002 13.3333C7.23874 13.3333 5.00016 15.5718 5.00016 18.3333H3.3335ZM10.0002 10.8333C7.23766 10.8333 5.00016 8.59575 5.00016 5.83325C5.00016 3.07075 7.23766 0.833252 10.0002 0.833252C12.7627 0.833252 15.0002 3.07075 15.0002 5.83325C15.0002 8.59575 12.7627 10.8333 10.0002 10.8333ZM10.0002 9.16658C11.8418 9.16658 13.3335 7.67492 13.3335 5.83325C13.3335 3.99159 11.8418 2.49992 10.0002 2.49992C8.1585 2.49992 6.66683 3.99159 6.66683 5.83325C6.66683 7.67492 8.1585 9.16658 10.0002 9.16658Z" fill="#4B4F54"/>
</svg>
