<svg width="24" height="24" viewBox="0 0 24 24" fill="none" xmlns="http://www.w3.org/2000/svg">
<path d="M7.83333 7V4.5C7.83333 4.27898 7.92113 4.06702 8.07741 3.91074C8.23369 3.75446 8.44565 3.66666 8.66667 3.66666H18.6667C18.8877 3.66666 19.0996 3.75446 19.2559 3.91074C19.4122 4.06702 19.5 4.27898 19.5 4.5V16.1667C19.5 16.3877 19.4122 16.5996 19.2559 16.7559C19.0996 16.9122 18.8877 17 18.6667 17H16.1667V19.5C16.1667 19.96 15.7917 20.3333 15.3275 20.3333H5.33917C5.22927 20.334 5.12033 20.3129 5.0186 20.2714C4.91687 20.2298 4.82436 20.1685 4.74638 20.0911C4.6684 20.0136 4.60649 19.9216 4.56421 19.8201C4.52193 19.7187 4.50011 19.6099 4.5 19.5L4.5025 7.83333C4.5025 7.37333 4.8775 7 5.34167 7H7.83333ZM6.16917 8.66666L6.16667 18.6667H14.5V8.66666H6.16917ZM9.5 7H16.1667V15.3333H17.8333V5.33333H9.5V7Z" fill="#69B6AA"/>
</svg>
