<svg width="32" height="32" viewBox="0 0 32 32" fill="none" xmlns="http://www.w3.org/2000/svg">
    <g clip-path="url(#clip0_1353_4925)">
        <path
            d="M15.1933 16.5565V19.9665H14.0933V11.5332H16.9533C17.65 11.5332 18.31 11.7899 18.8233 12.2665C19.3367 12.7065 19.5933 13.3665 19.5933 14.0632C19.5933 14.7599 19.3367 15.3832 18.8233 15.8599C18.31 16.3365 17.6867 16.5932 16.9533 16.5932L15.1933 16.5565ZM15.1933 12.5599V15.4932H17.0267C17.43 15.4932 17.8333 15.3465 18.09 15.0532C18.6767 14.5032 18.6767 13.5865 18.1267 13.0365L18.09 12.9999C17.7967 12.7065 17.43 12.5232 17.0267 12.5599H15.1933Z"
            fill="#5F6368" />
        <path
            d="M22.1233 14.0273C22.93 14.0273 23.5533 14.2473 24.03 14.6873C24.5067 15.1273 24.7267 15.714 24.7267 16.4473V19.9673H23.7V19.1607H23.6633C23.2233 19.8207 22.6 20.1507 21.8667 20.1507C21.2433 20.1507 20.6933 19.9673 20.2533 19.6007C19.85 19.234 19.5933 18.7207 19.5933 18.1707C19.5933 17.584 19.8133 17.1073 20.2533 16.7407C20.6933 16.374 21.3167 16.2273 22.05 16.2273C22.71 16.2273 23.2233 16.3373 23.6267 16.594V16.3373C23.6267 15.9707 23.48 15.604 23.1867 15.384C22.8933 15.1273 22.5267 14.9807 22.1233 14.9807C21.5 14.9807 21.0233 15.2373 20.6933 15.7507L19.74 15.164C20.3267 14.394 21.0967 14.0273 22.1233 14.0273ZM20.73 18.2073C20.73 18.5007 20.8767 18.7573 21.0967 18.904C21.3533 19.0873 21.6467 19.1973 21.94 19.1973C22.38 19.1973 22.82 19.014 23.15 18.684C23.5167 18.354 23.7 17.9507 23.7 17.5107C23.37 17.254 22.8933 17.1073 22.27 17.1073C21.83 17.1073 21.4633 17.2173 21.17 17.4373C20.8767 17.6207 20.73 17.8773 20.73 18.2073Z"
            fill="#5F6368" />
        <path
            d="M30.6666 14.2109L27.0366 22.5343H25.9366L27.2933 19.6376L24.91 14.2476H26.0833L27.8066 18.3909H27.8433L29.53 14.2476H30.6666V14.2109Z"
            fill="#5F6368" />
        <path
            d="M10.83 15.824C10.83 15.494 10.7933 15.164 10.7567 14.834H6.17334V16.704H8.77667C8.66667 17.2907 8.33667 17.8407 7.82334 18.1707V19.3807H9.40001C10.3167 18.5373 10.83 17.2907 10.83 15.824Z"
            fill="#4285F4" />
        <path
            d="M6.17329 20.5542C7.49329 20.5542 8.59329 20.1142 9.39995 19.3809L7.82329 18.1709C7.38329 18.4642 6.83328 18.6475 6.17329 18.6475C4.92662 18.6475 3.82662 17.8042 3.45995 16.6309H1.84662V17.8775C2.68995 19.5275 4.33995 20.5542 6.17329 20.5542Z"
            fill="#34A853" />
        <path
            d="M3.45999 16.6303C3.23999 16.0437 3.23999 15.3837 3.45999 14.7603V13.5137H1.84666C1.14999 14.8703 1.14999 16.4837 1.84666 17.877L3.45999 16.6303Z"
            fill="#FBBC04" />
        <path
            d="M6.1733 12.7797C6.86997 12.7797 7.52997 13.0364 8.0433 13.5131L9.43663 12.1197C8.55663 11.3131 7.3833 10.8364 6.20997 10.8731C4.37663 10.8731 2.68997 11.8997 1.8833 13.5497L3.49663 14.7964C3.82663 13.6231 4.92663 12.7797 6.1733 12.7797Z"
            fill="#EA4335" />
    </g>
    <defs>
        <clipPath id="clip0_1353_4925">
            <rect width="29.3333" height="13.97" fill="white"
                transform="translate(1.33331 9.33398)" />
        </clipPath>
    </defs>
</svg>
