<svg width="24" height="24" viewBox="0 0 24 24" fill="none" xmlns="http://www.w3.org/2000/svg">
<path d="M17.4367 18.8794C15.8111 19.9311 13.9251 20.4881 12 20.485C7.01618 20.485 2.86977 16.827 2 12C2.39748 9.80401 3.48039 7.79796 5.08716 6.28113L2.19503 3.33402L3.50291 2L21.8031 20.6669L20.4952 22L17.4358 18.8794H17.4367ZM6.39412 7.6161C5.138 8.78098 4.26298 10.3113 3.88742 12C4.17607 13.2883 4.75558 14.49 5.57982 15.5096C6.40405 16.5291 7.45025 17.3384 8.63514 17.8728C9.82002 18.4073 11.1109 18.6523 12.4049 18.5882C13.699 18.5242 14.9605 18.1529 16.0891 17.5039L14.2146 15.592C13.4167 16.1047 12.4716 16.3255 11.5344 16.2184C10.5972 16.1112 9.72349 15.6824 9.05663 15.0022C8.38978 14.322 7.96934 13.4309 7.86428 12.4749C7.75922 11.519 7.97577 10.555 8.47842 9.74111L6.39412 7.6161ZM12.8448 14.1948L9.84823 11.1383C9.68376 11.5653 9.64506 12.032 9.73686 12.4811C9.82866 12.9303 10.047 13.3423 10.365 13.6667C10.6831 13.9911 11.087 14.2138 11.5274 14.3074C11.9677 14.4011 12.4252 14.3616 12.8439 14.1938L12.8448 14.1948ZM20.1403 16.3292L18.8176 14.981C19.4355 14.0829 19.8754 13.0702 20.1126 12C19.8614 10.8778 19.3891 9.8195 18.7244 8.88931C18.0597 7.95912 17.2166 7.17651 16.2461 6.58905C15.2757 6.00159 14.1983 5.62154 13.0793 5.47201C11.9604 5.32248 10.8234 5.4066 9.73731 5.71924L8.27877 4.23155C9.43137 3.76959 10.6875 3.51504 12 3.51504C16.9838 3.51504 21.1302 7.173 22 12C21.7168 13.5704 21.0802 15.0523 20.1403 16.3292ZM11.744 7.76506C12.3323 7.72798 12.9216 7.81886 13.4729 8.03169C14.0242 8.24452 14.5248 8.57444 14.9416 8.99958C15.3584 9.42471 15.6819 9.93535 15.8905 10.4976C16.0992 11.0599 16.1883 11.6611 16.152 12.2611L11.743 7.76506H11.744Z" fill="#7F8286"/>
</svg>
