<svg width="32" height="32" viewBox="0 0 32 32" fill="none" xmlns="http://www.w3.org/2000/svg">
<path d="M6.49531 13.334H5.05099C5.05099 14.5192 4.50694 15.6009 3.56133 16.3133L2.99137 16.7408L5.20643 19.759H7.0264L4.98622 16.9804C5.95126 16.0218 6.49531 14.7265 6.49531 13.334ZM1.33331 13.334H2.81002V19.759H1.33331V13.334ZM7.45387 13.334H8.84638V19.759H7.45387V13.334ZM21.0616 15.1928C20.5305 15.1928 20.0253 15.3547 19.6885 15.8146V15.3159H18.3672V19.759H19.7079V17.4273C19.7079 16.7537 20.1613 16.4234 20.7054 16.4234C21.2883 16.4234 21.6251 16.7732 21.6251 17.4208V19.7654H22.9528V16.9351C22.9528 15.8988 22.1303 15.1928 21.0616 15.1928ZM13.0563 15.3159V15.6009C12.6806 15.3418 12.2273 15.1928 11.735 15.1928C10.4397 15.1928 9.39043 16.2421 9.39043 17.5374C9.39043 18.8328 10.4397 19.882 11.735 19.882C12.2273 19.882 12.6806 19.733 13.0563 19.474V19.759H14.384V15.3159H13.0563ZM11.8451 18.6773C11.178 18.6773 10.6404 18.1657 10.6404 17.5374C10.6404 16.9092 11.178 16.3975 11.8451 16.3975C12.5122 16.3975 13.0498 16.9092 13.0498 17.5374C13.0498 18.1657 12.5122 18.6773 11.8451 18.6773ZM16.4436 15.8923V15.3159H15.0835V19.759H16.4501V17.6864C16.4501 16.9869 17.2079 16.6112 17.7325 16.6112H17.7455V15.3159C17.2079 15.3159 16.7092 15.549 16.4436 15.8923ZM27.085 15.3159V15.6009C26.7093 15.3418 26.256 15.1928 25.7637 15.1928C24.4684 15.1928 23.4191 16.2421 23.4191 17.5374C23.4191 18.8328 24.4684 19.882 25.7637 19.882C26.256 19.882 26.7093 19.733 27.085 19.474V19.759H28.4127V15.3159H27.085ZM25.8738 18.6773C25.2067 18.6773 24.6692 18.1657 24.6692 17.5374C24.6692 16.9092 25.2067 16.3975 25.8738 16.3975C26.5409 16.3975 27.0785 16.9092 27.0785 17.5374C27.085 18.1657 26.5409 18.6773 25.8738 18.6773ZM29.4425 15.4454C29.4425 15.3806 29.3972 15.3418 29.326 15.3418H29.2029V15.6786H29.2612V15.5555H29.326L29.3778 15.6786H29.4425L29.3843 15.5426C29.4231 15.5231 29.4425 15.4908 29.4425 15.4454ZM29.326 15.4972H29.2612V15.3936H29.326C29.3648 15.3936 29.3843 15.413 29.3843 15.4454C29.3843 15.4778 29.3713 15.4972 29.326 15.4972Z" fill="black"/>
<path d="M29.3065 15.1992C29.1316 15.1992 28.9891 15.3417 28.9891 15.5166C28.9956 15.6915 29.1316 15.8339 29.3065 15.8339C29.4814 15.8339 29.6239 15.6915 29.6239 15.5166C29.6239 15.3417 29.4814 15.1992 29.3065 15.1992ZM29.3065 15.7757C29.164 15.7757 29.0539 15.6591 29.0539 15.5166C29.0539 15.3741 29.1705 15.2575 29.3065 15.2575C29.449 15.2575 29.5591 15.3741 29.5591 15.5166C29.5591 15.6591 29.4425 15.7757 29.3065 15.7757ZM29.8311 18.185C29.3713 18.185 28.9956 18.5607 28.9956 19.0205C28.9956 19.4804 29.3713 19.856 29.8311 19.856C30.291 19.856 30.6666 19.4804 30.6666 19.0205C30.6666 18.5542 30.291 18.185 29.8311 18.185Z" fill="black"/>
</svg>
