<svg width="20" height="20" viewBox="0 0 20 20" fill="none" xmlns="http://www.w3.org/2000/svg">
<path d="M15.3037 12.9462L14.1252 11.7677L15.3037 10.5892C16.9309 8.962 16.9309 6.32381 15.3037 4.69662C13.6765 3.06944 11.0383 3.06944 9.41116 4.69662L8.23264 5.87514L7.05414 4.69662L8.23264 3.51811C10.5107 1.24006 14.2042 1.24006 16.4822 3.51811C18.7602 5.79617 18.7602 9.48966 16.4822 11.7677L15.3037 12.9462ZM12.9467 15.3032L11.7682 16.4817C9.49016 18.7598 5.79666 18.7598 3.5186 16.4817C1.24054 14.2037 1.24054 10.5102 3.5186 8.23216L4.69711 7.05365L5.87562 8.23216L4.69711 9.41066C3.06993 11.0378 3.06993 13.6761 4.69711 15.3032C6.32429 16.9304 8.96249 16.9304 10.5897 15.3032L11.7682 14.1247L12.9467 15.3032ZM12.3574 6.46439L13.5359 7.64291L7.64339 13.5355L6.46488 12.3569L12.3574 6.46439Z" fill="#4B4F54"/>
</svg>
