<svg width="32" height="32" viewBox="0 0 32 32" fill="none" xmlns="http://www.w3.org/2000/svg">
<path d="M20.8627 18.5876H22.4314V8.23464H13.6471V9.80327H20.8627V18.5876ZM20.8627 20.1562V23.4503C20.8627 23.8833 20.5098 24.2346 20.0729 24.2346H8.7898C8.68637 24.2353 8.58384 24.2154 8.4881 24.1763C8.39235 24.1372 8.30528 24.0795 8.23189 24.0066C8.1585 23.9338 8.10023 23.8471 8.06043 23.7516C8.02064 23.6562 8.0001 23.5538 8 23.4503L8.00235 10.5876C8.00235 10.1546 8.35529 9.80327 8.79216 9.80327H12.0784V7.45033C12.0784 7.24232 12.1611 7.04282 12.3082 6.89574C12.4552 6.74865 12.6547 6.66602 12.8627 6.66602H23.2157C23.4237 6.66602 23.6232 6.74865 23.7703 6.89574C23.9174 7.04282 24 7.24232 24 7.45033V19.3719C24 19.5799 23.9174 19.7794 23.7703 19.9265C23.6232 20.0736 23.4237 20.1562 23.2157 20.1562H20.8627ZM9.57098 11.3719L9.56863 22.666H19.2941V11.3719H9.57098ZM12.0784 18.5876H15.6078C15.7118 18.5876 15.8116 18.5463 15.8851 18.4727C15.9587 18.3992 16 18.2994 16 18.1954C16 18.0914 15.9587 17.9917 15.8851 17.9181C15.8116 17.8446 15.7118 17.8033 15.6078 17.8033H13.2549C12.7349 17.8033 12.2361 17.5967 11.8684 17.229C11.5007 16.8613 11.2941 16.3625 11.2941 15.8425C11.2941 15.3225 11.5007 14.8237 11.8684 14.456C12.2361 14.0883 12.7349 13.8817 13.2549 13.8817H13.6471V13.0974H15.2157V13.8817H16.7843V15.4503H13.2549C13.1509 15.4503 13.0511 15.4916 12.9776 15.5652C12.9041 15.6387 12.8627 15.7385 12.8627 15.8425C12.8627 15.9465 12.9041 16.0462 12.9776 16.1198C13.0511 16.1933 13.1509 16.2346 13.2549 16.2346H15.6078C16.1279 16.2346 16.6266 16.4412 16.9943 16.8089C17.362 17.1767 17.5686 17.6754 17.5686 18.1954C17.5686 18.7155 17.362 19.2142 16.9943 19.5819C16.6266 19.9496 16.1279 20.1562 15.6078 20.1562H15.2157V20.9405H13.6471V20.1562H12.0784V18.5876Z" fill="#7F8286"/>
</svg>
