<svg width="32" height="32" viewBox="0 0 32 32" fill="none" xmlns="http://www.w3.org/2000/svg">
<path d="M11.8027 22.7231H8.45748C7.92224 22.7231 7.38701 22.4554 7.05248 22.054C6.71796 21.6526 6.58415 21.1174 6.71796 20.5821L9.59485 8.0041C9.79556 7.20125 10.4646 6.66602 11.3344 6.66602H17.0881C18.6269 6.66602 20.0319 7.33506 21.0355 8.53934C21.9722 9.74362 22.3736 11.2824 22.0391 12.8212C21.5038 15.4974 19.0953 17.3707 16.3522 17.3707H14.2112C13.8767 17.3707 13.5422 17.6383 13.4753 17.9728L12.4717 22.1878C12.4048 22.5223 12.1372 22.7231 11.8027 22.7231Z" fill="#7F8286"/>
<path d="M11.8027 22.7231H8.45748C7.92224 22.7231 7.38701 22.4554 7.05248 22.054C6.71796 21.6526 6.58415 21.1174 6.71796 20.5821L9.59485 8.0041C9.79556 7.20125 10.4646 6.66602 11.3344 6.66602H17.0881C18.6269 6.66602 20.0319 7.33506 21.0355 8.53934C21.9722 9.74362 22.3736 11.2824 22.0391 12.8212C21.5038 15.4974 19.0953 17.3707 16.3522 17.3707H14.2112C13.8767 17.3707 13.5422 17.6383 13.4753 17.9728L12.4717 22.1878C12.4048 22.5223 12.1372 22.7231 11.8027 22.7231Z" fill="#253B80"/>
<path d="M23.3771 12.8887C23.3771 12.9556 23.3771 13.0225 23.3771 13.0894C22.7081 16.3677 19.7643 18.7093 16.4191 18.7093H14.7465L13.8098 22.5229C13.5422 23.4596 12.7393 24.0617 11.8027 24.0617H10.4646C10.5315 24.3293 10.5984 24.53 10.7991 24.7307C11.1336 25.1322 11.602 25.3329 12.1372 25.3329H15.1479C15.4824 25.3329 15.75 25.1322 15.8169 24.8645L16.7536 21.1848C16.8205 20.9172 17.0881 20.7834 17.3557 20.7834H19.296C21.7714 20.7834 23.9793 19.1108 24.4476 16.7691C24.7152 15.3641 24.3138 13.8922 23.3771 12.8887Z" fill="#179BD7"/>
</svg>
