<svg width="32" height="32" viewBox="0 0 32 32" fill="none" xmlns="http://www.w3.org/2000/svg">
<path d="M22.7828 20.6703H19.0015H17.1451H13.5264C13.0474 20.6703 12.6538 20.2768 12.6538 19.7977C12.6538 19.7549 12.6538 19.7122 12.6624 19.6779C12.6624 19.5154 12.7052 19.3443 12.7993 19.1989L16.7602 13.0821H14.2793H12.6538H9.91629C9.82218 13.0821 9.74519 13.1591 9.74519 13.2532V22.8261C9.74519 22.9202 9.82218 22.9972 9.91629 22.9972H14.8097C14.9038 22.9972 14.9808 22.9202 14.9808 22.8261V22.6465V22.1845C14.9808 21.9877 15.1347 21.8338 15.3315 21.8338H16.3837C16.5805 21.8338 16.7345 21.9877 16.7345 22.1845V22.655V23.2367V24.4002C16.7345 24.9135 16.3153 25.3327 15.802 25.3327H8.93248C8.41919 25.3327 8 24.9135 8 24.4002V12.2694C8 11.7561 8.41919 11.337 8.93248 11.337H12.6538H14.2793H18.3C18.7791 11.337 19.1726 11.7305 19.1726 12.2096C19.1726 12.2523 19.1726 12.2951 19.1641 12.3293C19.1641 12.4919 19.1213 12.663 19.0272 12.8084L15.0663 18.9166H17.1451H19.0015H21.799C21.8931 18.9166 21.9701 18.8396 21.9701 18.7455V8.59086C21.9701 8.49675 21.8931 8.41976 21.799 8.41976H16.9056C16.8115 8.41976 16.7345 8.49675 16.7345 8.59086V8.76195V9.34368V9.8142C16.7345 10.011 16.5805 10.1649 16.3837 10.1649H15.3401C15.1433 10.1649 14.9893 10.011 14.9893 9.8142V9.34368V8.76195V7.59849C14.9893 7.0852 15.4085 6.66602 15.9218 6.66602H22.7913C23.3046 6.66602 23.7238 7.0852 23.7238 7.59849V19.7378C23.7153 20.2511 23.2961 20.6703 22.7828 20.6703ZM12.363 24.6397C12.6196 24.6397 12.8249 24.4344 12.8249 24.1778C12.8249 23.9211 12.6196 23.7158 12.363 23.7158C12.1063 23.7158 11.901 23.9211 11.901 24.1778C11.8925 24.4259 12.1063 24.6397 12.363 24.6397Z" fill="black"/>
</svg>
