<svg width="24" height="24" viewBox="0 0 24 24" fill="none" xmlns="http://www.w3.org/2000/svg">
    <g clip-path="url(#clip0_2529_14432)">
        <path
            d="M17.2296 18.0536C15.7779 19.3115 13.9208 20.0027 12 20C7.5816 20 4 16.4184 4 12C4 7.5816 7.5816 4 12 4C16.4184 4 20 7.5816 20 12C20 13.7088 19.464 15.2928 18.552 16.592L16 12H18.4C18.3999 10.525 17.8902 9.09525 16.9573 7.95271C16.0244 6.81017 14.7255 6.02495 13.2803 5.72989C11.835 5.43482 10.3323 5.64801 9.02614 6.33341C7.72002 7.01881 6.69074 8.13433 6.11242 9.49126C5.5341 10.8482 5.44224 12.3632 5.85239 13.7801C6.26254 15.197 7.14951 16.4287 8.36326 17.2668C9.57701 18.105 11.043 18.4982 12.5133 18.3799C13.9836 18.2616 15.3679 17.6391 16.432 16.6176L17.2296 18.0536Z"
            fill="#7F8286" />
    </g>
    <defs>
        <clipPath id="clip0_2529_14432">
            <rect width="24" height="24" fill="white" />
        </clipPath>
    </defs>
</svg>
