<svg width="20" height="25" viewBox="0 0 20 25" fill="none" xmlns="http://www.w3.org/2000/svg">
<path fill-rule="evenodd" clip-rule="evenodd" d="M4.48561 7C4.50549 7 4.52544 7 4.54546 7H5.45455C5.95662 7 6.36364 7.40295 6.36364 7.9C6.36364 8.39706 5.95662 8.8 5.45455 8.8H4.54546C3.66266 8.8 3.09201 8.80191 2.67155 8.85788C2.27724 8.91036 2.15366 8.9951 2.08445 9.06361C2.01525 9.13212 1.92966 9.25447 1.87665 9.64484C1.82012 10.0611 1.81819 10.626 1.81819 11.5V20.5C1.81819 21.374 1.82012 21.9389 1.87665 22.3552C1.92966 22.7455 2.01525 22.8679 2.08445 22.9364C2.15366 23.0049 2.27724 23.0896 2.67155 23.1421C3.09201 23.1981 3.66266 23.2 4.54546 23.2H15.4545C16.3373 23.2 16.908 23.1981 17.3284 23.1421C17.7228 23.0896 17.8463 23.0049 17.9155 22.9364C17.9848 22.8679 18.0703 22.7455 18.1234 22.3552C18.1799 21.9389 18.1818 21.374 18.1818 20.5V11.5C18.1818 10.626 18.1799 10.0611 18.1234 9.64484C18.0703 9.25447 17.9848 9.13212 17.9155 9.06361C17.8463 8.9951 17.7228 8.91036 17.3284 8.85788C16.908 8.80191 16.3373 8.8 15.4545 8.8H14.5455C14.0434 8.8 13.6364 8.39706 13.6364 7.9C13.6364 7.40295 14.0434 7 14.5455 7L15.5144 7C16.3203 6.99996 17.0147 6.99992 17.5707 7.07393C18.1666 7.15325 18.7379 7.33212 19.2012 7.79082C19.6645 8.24951 19.8452 8.81503 19.9253 9.40499C20.0001 9.95549 20 10.6429 20 11.4408V20.5592C20 21.3571 20.0001 22.0445 19.9253 22.595C19.8452 23.185 19.6645 23.7505 19.2012 24.2092C18.7379 24.6679 18.1666 24.8468 17.5707 24.9261C17.0147 25.0001 16.3203 25 15.5144 25H4.48563C3.67973 25 2.98534 25.0001 2.42928 24.9261C1.83336 24.8468 1.26213 24.6679 0.798804 24.2092C0.335475 23.7505 0.154797 23.185 0.0746775 22.595C-8.19902e-05 22.0445 -4.30814e-05 21.3571 2.2181e-06 20.5592L4.38554e-06 11.5C4.38554e-06 11.4802 3.30182e-06 11.4604 2.2181e-06 11.4408C-4.30814e-05 10.6429 -8.19902e-05 9.95548 0.0746775 9.40499C0.154797 8.81503 0.335475 8.24951 0.798804 7.79082C1.26213 7.33212 1.83336 7.15325 2.42928 7.07393C2.98534 6.99992 3.67971 6.99996 4.48561 7Z" fill="#9198AA"/>
<path fill-rule="evenodd" clip-rule="evenodd" d="M5.29289 5.07298C4.90237 4.72585 4.90237 4.16304 5.29289 3.81591L9.29289 0.260348C9.48043 0.0936499 9.73478 0 10 0C10.2652 0 10.5196 0.0936499 10.7071 0.260348L14.7071 3.81591C15.0976 4.16304 15.0976 4.72585 14.7071 5.07298C14.3166 5.42012 13.6834 5.42012 13.2929 5.07298L11 3.03486V15.1111C11 15.602 10.5523 16 10 16C9.44771 16 9 15.602 9 15.1111V3.03486L6.70711 5.07298C6.31658 5.42012 5.68342 5.42012 5.29289 5.07298Z" fill="#9198AA"/>
</svg>
