<svg width="20" height="20" viewBox="0 0 20 20" fill="none" xmlns="http://www.w3.org/2000/svg">
<path d="M8.33925 1.7531C7.17128 1.37501 5.90159 1.90092 5.34305 2.99417L4.67156 4.30848C4.59178 4.46465 4.46477 4.59166 4.3086 4.67144L2.9943 5.34292C1.90105 5.90147 1.37513 7.17116 1.75322 8.33912L2.20777 9.74329C2.26177 9.91012 2.26177 10.0898 2.20777 10.2566L1.75322 11.6608C1.37513 12.8288 1.90105 14.0985 2.9943 14.657L4.3086 15.3285C4.46477 15.4083 4.59178 15.5353 4.67156 15.6915L5.34305 17.0058C5.90159 18.099 7.17128 18.625 8.33925 18.2469L9.74341 17.7923C9.91025 17.7383 10.0899 17.7383 10.2567 17.7923L11.6609 18.2469C12.8289 18.625 14.0986 18.099 14.6572 17.0058L15.3286 15.6915C15.4084 15.5353 15.5354 15.4083 15.6916 15.3285L17.0059 14.657C18.0992 14.0985 18.6251 12.8288 18.247 11.6608L17.7924 10.2566C17.7384 10.0898 17.7384 9.91012 17.7924 9.74329L18.247 8.33912C18.6251 7.17116 18.0992 5.90147 17.0059 5.34292L15.6916 4.67144C15.5354 4.59166 15.4084 4.46465 15.3286 4.30848L14.6572 2.99417C14.0986 1.90092 12.8289 1.37501 11.6609 1.7531L10.2567 2.20765C10.0899 2.26165 9.91025 2.26166 9.74341 2.20765L8.33925 1.7531ZM6.82723 3.75245C7.01341 3.38803 7.43665 3.21272 7.82597 3.33876L9.23016 3.7933C9.73066 3.95532 10.2695 3.95532 10.77 3.7933L12.1742 3.33876C12.5635 3.21272 12.9867 3.38803 13.1729 3.75244L13.8444 5.06676C14.0837 5.53524 14.4648 5.91627 14.9333 6.15562L16.2476 6.82711C16.612 7.01329 16.7873 7.43652 16.6613 7.82585L16.2067 9.23004C16.0447 9.73054 16.0447 10.2694 16.2067 10.7699L16.6613 12.1741C16.7873 12.5634 16.612 12.9866 16.2476 13.1728L14.9333 13.8443C14.4648 14.0836 14.0837 14.4647 13.8444 14.9332L13.1729 16.2475C12.9867 16.6119 12.5635 16.7872 12.1742 16.6612L10.77 16.2066C10.2695 16.0446 9.73066 16.0446 9.23016 16.2066L7.82597 16.6612C7.43665 16.7872 7.01341 16.6119 6.82723 16.2475L6.15575 14.9332C5.9164 14.4647 5.53536 14.0836 5.06688 13.8443L3.75257 13.1728C3.38815 12.9866 3.21285 12.5634 3.33888 12.1741L3.79342 10.7699C3.95545 10.2694 3.95545 9.73054 3.79342 9.23004L3.33888 7.82585C3.21285 7.43652 3.38815 7.01329 3.75257 6.82711L5.06688 6.15562C5.53536 5.91627 5.9164 5.53524 6.15575 5.06676L6.82723 3.75245ZM5.63308 9.79779L9.16858 13.3333L15.0612 7.44077L13.8827 6.26226L9.16858 10.9763L6.8116 8.61921L5.63308 9.79779Z" fill="#4B4F54"/>
</svg>
