<svg width="24" height="24" viewBox="0 0 24 24" fill="none" xmlns="http://www.w3.org/2000/svg">
<path d="M11.6169 4C16.4098 4 20.3973 7.44889 21.2338 12C20.3982 16.5511 16.4098 20 11.6169 20C6.824 20 2.83644 16.5511 2 12C2.83556 7.44889 6.824 4 11.6169 4ZM11.6169 18.2222C13.4298 18.2218 15.1888 17.6061 16.6061 16.4757C18.0234 15.3453 19.015 13.7674 19.4187 12C19.0135 10.234 18.0213 8.65778 16.6041 7.52891C15.1869 6.40004 13.4287 5.78536 11.6169 5.78536C9.80506 5.78536 8.04684 6.40004 6.62967 7.52891C5.2125 8.65778 4.22024 10.234 3.81511 12C4.21875 13.7674 5.21038 15.3453 6.62768 16.4757C8.04499 17.6061 9.80403 18.2218 11.6169 18.2222ZM11.6169 16C10.556 16 9.53861 15.5786 8.78846 14.8284C8.03832 14.0783 7.61689 13.0609 7.61689 12C7.61689 10.9391 8.03832 9.92172 8.78846 9.17157C9.53861 8.42143 10.556 8 11.6169 8C12.6778 8 13.6952 8.42143 14.4453 9.17157C15.1955 9.92172 15.6169 10.9391 15.6169 12C15.6169 13.0609 15.1955 14.0783 14.4453 14.8284C13.6952 15.5786 12.6778 16 11.6169 16ZM11.6169 14.2222C12.2063 14.2222 12.7715 13.9881 13.1882 13.5713C13.605 13.1546 13.8391 12.5894 13.8391 12C13.8391 11.4106 13.605 10.8454 13.1882 10.4287C12.7715 10.0119 12.2063 9.77778 11.6169 9.77778C11.0275 9.77778 10.4623 10.0119 10.0455 10.4287C9.62879 10.8454 9.39467 11.4106 9.39467 12C9.39467 12.5894 9.62879 13.1546 10.0455 13.5713C10.4623 13.9881 11.0275 14.2222 11.6169 14.2222Z" fill="#7F8286"/>
</svg>
