<svg width="14" height="14" viewBox="0 0 14 14" fill="none" xmlns="http://www.w3.org/2000/svg">
<path d="M6.77652 2.33334C9.57238 2.33334 11.8984 4.34519 12.3864 7C11.899 9.65482 9.57238 11.6667 6.77652 11.6667C3.98067 11.6667 1.6546 9.65482 1.16667 7C1.65408 4.34519 3.98067 2.33334 6.77652 2.33334ZM6.77652 10.6296C7.83403 10.6294 8.86013 10.2702 9.68689 9.61083C10.5137 8.95146 11.0921 8.03096 11.3276 7C11.0912 5.96986 10.5124 5.05038 9.68574 4.39187C8.85906 3.73336 7.83342 3.3748 6.77652 3.3748C5.71963 3.3748 4.69399 3.73336 3.86731 4.39187C3.04063 5.05038 2.46181 5.96986 2.22549 7C2.46094 8.03096 3.03939 8.95146 3.86615 9.61083C4.69292 10.2702 5.71902 10.6294 6.77652 10.6296ZM6.77652 9.33334C6.15769 9.33334 5.56419 9.0875 5.12661 8.64992C4.68902 8.21233 4.44319 7.61884 4.44319 7C4.44319 6.38116 4.68902 5.78767 5.12661 5.35009C5.56419 4.9125 6.15769 4.66667 6.77652 4.66667C7.39536 4.66667 7.98885 4.9125 8.42644 5.35009C8.86402 5.78767 9.10986 6.38116 9.10986 7C9.10986 7.61884 8.86402 8.21233 8.42644 8.64992C7.98885 9.0875 7.39536 9.33334 6.77652 9.33334ZM6.77652 8.2963C7.12032 8.2963 7.45004 8.15973 7.69314 7.91662C7.93625 7.67352 8.07282 7.3438 8.07282 7C8.07282 6.6562 7.93625 6.32649 7.69314 6.08338C7.45004 5.84028 7.12032 5.70371 6.77652 5.70371C6.43272 5.70371 6.10301 5.84028 5.8599 6.08338C5.6168 6.32649 5.48023 6.6562 5.48023 7C5.48023 7.3438 5.6168 7.67352 5.8599 7.91662C6.10301 8.15973 6.43272 8.2963 6.77652 8.2963Z" fill="#7F8286"/>
</svg>
