<svg width="24" height="24" viewBox="0 0 24 24" fill="none" xmlns="http://www.w3.org/2000/svg">
    <mask id="mask0_469_7763" style="mask-type:alpha" maskUnits="userSpaceOnUse" x="0" y="0"
        width="24" height="24">
        <rect width="24" height="24" fill="#D9D9D9" />
    </mask>
    <g mask="url(#mask0_469_7763)">
        <path
            d="M12.0034 11.7308C12.4486 11.7308 12.8285 11.5723 13.1433 11.2552C13.458 10.9382 13.6154 10.5571 13.6154 10.112C13.6154 9.66681 13.4569 9.28686 13.1399 8.97213C12.8228 8.65738 12.4418 8.5 11.9966 8.5C11.5514 8.5 11.1715 8.65851 10.8567 8.97552C10.542 9.29252 10.3846 9.67362 10.3846 10.1188C10.3846 10.564 10.5431 10.9439 10.8601 11.2587C11.1771 11.5734 11.5582 11.7308 12.0034 11.7308ZM12 19.6769C13.8795 18.041 15.3654 16.3772 16.4577 14.6856C17.55 12.9939 18.0961 11.5308 18.0961 10.2962C18.0961 8.46667 17.517 6.95673 16.3586 5.76635C15.2003 4.57597 13.7474 3.98078 12 3.98078C10.2526 3.98078 8.79967 4.57597 7.64134 5.76635C6.48301 6.95673 5.90384 8.46667 5.90384 10.2962C5.90384 11.5308 6.44999 12.9939 7.54229 14.6856C8.63461 16.3772 10.1205 18.041 12 19.6769ZM12 21.0192C9.64999 18.941 7.8798 17.0029 6.68941 15.2048C5.49903 13.4067 4.90384 11.7705 4.90384 10.2962C4.90384 8.18077 5.59262 6.43589 6.97019 5.06153C8.34774 3.68718 10.0243 3 12 3C13.9756 3 15.6522 3.68718 17.0298 5.06153C18.4074 6.43589 19.0961 8.18077 19.0961 10.2962C19.0961 11.7705 18.5009 13.4067 17.3106 15.2048C16.1202 17.0029 14.35 18.941 12 21.0192Z"
            fill="#1C1B1F" />
    </g>
</svg>
