<svg width="4" height="16" viewBox="0 0 4 16" fill="none" xmlns="http://www.w3.org/2000/svg">
<path d="M2 11.25C2.9375 11.25 3.75 12.0625 3.75 13C3.75 13.9688 2.9375 14.75 2 14.75C1.03125 14.75 0.25 13.9688 0.25 13C0.25 12.0625 1.03125 11.25 2 11.25ZM2 6.25C2.9375 6.25 3.75 7.0625 3.75 8C3.75 8.96875 2.9375 9.75 2 9.75C1.03125 9.75 0.25 8.96875 0.25 8C0.25 7.0625 1.03125 6.25 2 6.25ZM2 4.75C1.03125 4.75 0.25 3.96875 0.25 3C0.25 2.0625 1.03125 1.25 2 1.25C2.9375 1.25 3.75 2.0625 3.75 3C3.75 3.96875 2.9375 4.75 2 4.75Z" fill="#1E1E1E"/>
</svg>
