<svg width="21" height="18" viewBox="0 0 21 18" fill="none" xmlns="http://www.w3.org/2000/svg">
<path d="M19.125 0.25C19.7891 0.25 20.375 0.835938 20.375 1.5V15.25C20.375 16.6562 19.2422 17.75 17.875 17.75H2.875C1.46875 17.75 0.375 16.6562 0.375 15.25V4C0.375 3.33594 0.921875 2.75 1.625 2.75H2.875V14.625C2.875 14.9766 3.14844 15.25 3.5 15.25C3.8125 15.25 4.125 14.9766 4.125 14.625V1.5C4.125 0.835938 4.67188 0.25 5.375 0.25H19.125ZM11 15.25C11.3125 15.25 11.625 14.9766 11.625 14.625C11.625 14.3125 11.3125 14 11 14H7.25C6.89844 14 6.625 14.3125 6.625 14.625C6.625 14.9766 6.89844 15.25 7.25 15.25H11ZM11 11.5C11.3125 11.5 11.625 11.2266 11.625 10.875C11.625 10.5625 11.3125 10.25 11 10.25H7.25C6.89844 10.25 6.625 10.5625 6.625 10.875C6.625 11.2266 6.89844 11.5 7.25 11.5H11ZM17.25 15.25C17.5625 15.25 17.875 14.9766 17.875 14.625C17.875 14.3125 17.5625 14 17.25 14H13.5C13.1484 14 12.875 14.3125 12.875 14.625C12.875 14.9766 13.1484 15.25 13.5 15.25H17.25ZM17.25 11.5C17.5625 11.5 17.875 11.2266 17.875 10.875C17.875 10.5625 17.5625 10.25 17.25 10.25H13.5C13.1484 10.25 12.875 10.5625 12.875 10.875C12.875 11.2266 13.1484 11.5 13.5 11.5H17.25ZM17.875 7.125V3.375C17.875 3.0625 17.5625 2.75 17.25 2.75H7.25C6.89844 2.75 6.625 3.0625 6.625 3.375V7.125C6.625 7.47656 6.89844 7.75 7.25 7.75H17.25C17.5625 7.75 17.875 7.47656 17.875 7.125Z" fill="#1E1E1E"/>
</svg>
