<svg width="20" height="20" viewBox="0 0 20 20" fill="none" xmlns="http://www.w3.org/2000/svg">
<path d="M15 3.75C15 4.45312 15.5469 5 16.25 5H20V13.125C20 14.1797 19.1406 15 18.125 15H10.625C9.57031 15 8.75 14.1797 8.75 13.125V1.875C8.75 0.859375 9.57031 0 10.625 0H15V3.75ZM16.25 0L20 3.75H16.25V0ZM7.5 13.75C7.5 15.1562 8.59375 16.25 10 16.25H11.25V18.125C11.25 19.1797 10.3906 20 9.375 20H1.875C0.820312 20 0 19.1797 0 18.125V6.875C0 5.85938 0.820312 5 1.875 5H7.5V13.75Z" fill="#1E1E1E"/>
</svg>
