<svg width="24" height="24" viewBox="0 0 24 24" fill="none" xmlns="http://www.w3.org/2000/svg">
    <mask id="mask0_535_2908" style="mask-type:alpha" maskUnits="userSpaceOnUse" x="0" y="0"
        width="24" height="24">
        <rect width="24" height="24" fill="#D9D9D9" />
    </mask>
    <g mask="url(#mask0_535_2908)">
        <path
            d="M13.5 12.4233C12.9359 12.4233 12.4615 12.231 12.0769 11.8464C11.6923 11.4617 11.5 10.9874 11.5 10.4233C11.5 9.85918 11.6923 9.38482 12.0769 9.00021C12.4615 8.61559 12.9359 8.42328 13.5 8.42328C14.0641 8.42328 14.5384 8.61559 14.9231 9.00021C15.3077 9.38482 15.5 9.85918 15.5 10.4233C15.5 10.9874 15.3077 11.4617 14.9231 11.8464C14.5384 12.231 14.0641 12.4233 13.5 12.4233ZM7.30769 15.6156C6.86346 15.6156 6.48317 15.4574 6.16682 15.1411C5.85047 14.8247 5.69229 14.4444 5.69229 14.0002V6.84636C5.69229 6.40212 5.85047 6.02183 6.16682 5.70548C6.48317 5.38913 6.86346 5.23096 7.30769 5.23096H19.6923C20.1365 5.23096 20.5168 5.38913 20.8332 5.70548C21.1495 6.02183 21.3077 6.40212 21.3077 6.84636V14.0002C21.3077 14.4444 21.1495 14.8247 20.8332 15.1411C20.5168 15.4574 20.1365 15.6156 19.6923 15.6156H7.30769ZM8.30769 14.6156H18.6923C18.6923 14.1681 18.8505 13.7871 19.1668 13.4723C19.4832 13.1576 19.8635 13.0002 20.3077 13.0002V7.84636C19.8603 7.84636 19.4792 7.68818 19.1644 7.37183C18.8497 7.0555 18.6923 6.67522 18.6923 6.23098H8.30769C8.30769 6.67842 8.14952 7.05951 7.83317 7.37426C7.51682 7.68899 7.13652 7.84636 6.69229 7.84636V13.0002C7.13974 13.0002 7.52083 13.1584 7.83557 13.4747C8.15032 13.7911 8.30769 14.1713 8.30769 14.6156ZM18.3462 18.6156H4.30767C3.86343 18.6156 3.48315 18.4574 3.16682 18.1411C2.85047 17.8247 2.69229 17.4444 2.69229 17.0002V8.19251H3.69229V17.0002C3.69229 17.1541 3.75639 17.2951 3.88459 17.4233C4.01281 17.5515 4.15383 17.6156 4.30767 17.6156H18.3462V18.6156ZM7.30769 14.6156H6.69229V6.23098H7.30769C7.14103 6.23098 6.99679 6.29187 6.87499 6.41366C6.75319 6.53546 6.69229 6.67969 6.69229 6.84636V14.0002C6.69229 14.1669 6.75319 14.3111 6.87499 14.4329C6.99679 14.5547 7.14103 14.6156 7.30769 14.6156Z"
            fill="#1C1B1F" />
    </g>
</svg>
