<svg width="25" height="25" viewBox="0 0 25 25" fill="none" xmlns="http://www.w3.org/2000/svg">
<mask id="mask0_469_8541" style="mask-type:alpha" maskUnits="userSpaceOnUse" x="0" y="0" width="25" height="25">
<rect x="0.125" y="0.5" width="24" height="24" fill="#D9D9D9"/>
</mask>
<g mask="url(#mask0_469_8541)">
<path d="M12.125 11.8846C11.3 11.8846 10.5938 11.5909 10.0062 11.0034C9.41875 10.4159 9.125 9.70964 9.125 8.88464C9.125 8.05962 9.41875 7.35336 10.0062 6.76586C10.5938 6.17836 11.3 5.88461 12.125 5.88461C12.95 5.88461 13.6563 6.17836 14.2438 6.76586C14.8313 7.35336 15.125 8.05962 15.125 8.88464C15.125 9.70964 14.8313 10.4159 14.2438 11.0034C13.6563 11.5909 12.95 11.8846 12.125 11.8846ZM5.125 19.1154V17.4692C5.125 17.0564 5.24519 16.6702 5.48558 16.3106C5.72596 15.951 6.04936 15.6718 6.45578 15.4731C7.39936 15.0205 8.34358 14.6811 9.28845 14.4548C10.2333 14.2285 11.1789 14.1154 12.125 14.1154C13.0711 14.1154 14.0167 14.2285 14.9615 14.4548C15.9064 14.6811 16.8506 15.0205 17.7942 15.4731C18.2006 15.6718 18.524 15.951 18.7644 16.3106C19.0048 16.6702 19.125 17.0564 19.125 17.4692V19.1154H5.125ZM6.125 18.1154H18.125V17.4692C18.125 17.2475 18.0535 17.0391 17.9106 16.8442C17.7676 16.6494 17.5699 16.4846 17.3173 16.35C16.4942 15.9513 15.6456 15.6458 14.7714 15.4337C13.8972 15.2215 13.0151 15.1154 12.125 15.1154C11.2349 15.1154 10.3528 15.2215 9.4786 15.4337C8.6044 15.6458 7.75577 15.9513 6.9327 16.35C6.68013 16.4846 6.48237 16.6494 6.33942 16.8442C6.19648 17.0391 6.125 17.2475 6.125 17.4692V18.1154ZM12.125 10.8846C12.675 10.8846 13.1458 10.6888 13.5375 10.2971C13.9292 9.90547 14.125 9.43464 14.125 8.88464C14.125 8.33464 13.9292 7.86381 13.5375 7.47214C13.1458 7.08047 12.675 6.88464 12.125 6.88464C11.575 6.88464 11.1042 7.08047 10.7125 7.47214C10.3208 7.86381 10.125 8.33464 10.125 8.88464C10.125 9.43464 10.3208 9.90547 10.7125 10.2971C11.1042 10.6888 11.575 10.8846 12.125 10.8846Z" fill="#0F0F0F"/>
</g>
</svg>
