<svg width="22" height="22" viewBox="0 0 22 22" fill="none" xmlns="http://www.w3.org/2000/svg">
<path d="M20.5312 18.3438C21.1172 18.9688 21.1172 19.9453 20.5312 20.5703C19.9062 21.1562 18.9297 21.1562 18.3047 20.5703L13.6562 15.8828C12.0547 16.9375 10.1016 17.4844 7.99219 17.2109C4.39844 16.7031 1.50781 13.7734 1.03906 10.2188C0.375 4.90625 4.86719 0.414062 10.1797 1.07812C13.7344 1.54688 16.6641 4.4375 17.1719 8.03125C17.4453 10.1406 16.8984 12.0938 15.8438 13.6562L20.5312 18.3438ZM4.08594 9.125C4.08594 11.8984 6.3125 14.125 9.08594 14.125C11.8203 14.125 14.0859 11.8984 14.0859 9.125C14.0859 6.39062 11.8203 4.125 9.08594 4.125C6.3125 4.125 4.08594 6.39062 4.08594 9.125Z" fill="#1E1E1E"/>
</svg>
