<svg width="24" height="24" viewBox="0 0 24 24" fill="none" xmlns="http://www.w3.org/2000/svg">
    <mask id="mask0_469_7756" style="mask-type:alpha" maskUnits="userSpaceOnUse" x="0" y="0"
        width="24" height="24">
        <rect width="24" height="24" fill="#D9D9D9" />
    </mask>
    <g mask="url(#mask0_469_7756)">
        <path
            d="M19.4846 20.1539L13.2231 13.8923C12.7231 14.318 12.1481 14.6474 11.4981 14.8808C10.8481 15.1141 10.1949 15.2308 9.53845 15.2308C7.93679 15.2308 6.58124 14.6764 5.47183 13.5676C4.36239 12.4587 3.80768 11.1039 3.80768 9.50313C3.80768 7.90233 4.36209 6.54648 5.4709 5.43558C6.57972 4.32468 7.93453 3.76923 9.53533 3.76923C11.1361 3.76923 12.492 4.32393 13.6029 5.43335C14.7138 6.54277 15.2692 7.89832 15.2692 9.5C15.2692 10.1949 15.1462 10.8673 14.9 11.5173C14.6539 12.1673 14.3308 12.7231 13.9308 13.1846L20.1923 19.4462L19.4846 20.1539ZM9.53845 14.2308C10.8654 14.2308 11.9856 13.774 12.899 12.8606C13.8125 11.9471 14.2692 10.8269 14.2692 9.5C14.2692 8.17309 13.8125 7.05289 12.899 6.13943C11.9856 5.22596 10.8654 4.76923 9.53845 4.76923C8.21154 4.76923 7.09134 5.22596 6.17788 6.13943C5.26443 7.05289 4.8077 8.17309 4.8077 9.5C4.8077 10.8269 5.26443 11.9471 6.17788 12.8606C7.09134 13.774 8.21154 14.2308 9.53845 14.2308Z"
            fill="#1C1B1F" />
    </g>
</svg>
