<svg width="83" height="82" viewBox="0 0 83 82" fill="none" xmlns="http://www.w3.org/2000/svg">
    <path
        d="M59.6313 47.958C57.6897 46.0188 51.2695 43.843 43.1783 39.113C39.9648 37.2345 37.2046 34.6533 35.1479 31.5518C31.745 26.4367 30.3785 23.3757 29.4246 22.4297C27.4965 20.5107 24.3777 20.5039 22.4563 22.4297C20.5282 24.3487 20.5282 27.4705 22.4563 29.3895C23.4035 30.3355 26.4817 31.7072 31.6097 35.1128C34.7082 37.1737 37.2993 39.9239 39.1732 43.1335C43.9021 51.2082 46.0738 57.6139 48.0154 59.5532C51.2221 62.7561 56.4246 62.7561 59.6313 59.5532C62.8448 56.3571 62.8448 51.1677 59.6313 47.958Z"
        fill="#F1C20A" />
    <path
        d="M49.6464 17.0979C50.81 18.2601 52.1225 22.1117 54.9571 26.9565C56.0869 28.8823 57.6361 30.5378 59.4965 31.7676C62.568 33.8082 64.4081 34.6258 64.9764 35.1934C66.1333 36.3489 66.1333 38.2138 64.9764 39.3693C63.8195 40.5248 61.9523 40.5248 60.7955 39.3693C60.2272 38.8017 59.4018 36.957 57.352 33.8825C56.1139 32.0243 54.4632 30.4769 52.5351 29.3485C47.6845 26.5173 43.835 25.2132 42.6714 24.0509C40.7433 22.1319 40.7433 19.0101 42.6714 17.0911C44.5995 15.1721 47.7183 15.1721 49.6464 17.0979Z"
        fill="#F1C20A" />
    <path
        d="M25.2433 41.4643C26.4069 42.6265 27.7194 46.478 30.554 51.3229C31.6838 53.2487 33.233 54.9042 35.0935 56.1339C38.1649 58.1746 40.005 58.9922 40.5733 59.5598C41.7302 60.7153 41.7302 62.5802 40.5733 63.7357C39.4164 64.8911 37.5492 64.8911 36.3924 63.7357C35.8241 63.1681 34.9987 61.3234 32.9489 58.2489C31.7108 56.3907 30.0601 54.8433 28.132 53.7149C23.2813 50.8837 19.432 49.5796 18.2683 48.4173C16.3402 46.4983 16.3402 43.3765 18.2683 41.4575C20.2032 39.5385 23.322 39.5385 25.2433 41.4643Z"
        fill="#F1C20A" />
    <path
        d="M7.35646 60.7219C8.46596 59.6138 9.79193 58.8164 11.2329 58.3367C3.54762 45.1468 5.34718 27.9162 16.6519 16.6319C23.3765 9.9153 32.2119 6.55702 41.0473 6.55702C47.0616 6.55702 53.0691 8.11791 58.4204 11.2262C58.8872 9.80718 59.672 8.47603 60.8018 7.3476C61.316 6.83406 61.8842 6.38809 62.4796 6.00969C46.6625 -3.65297 25.6767 -1.66638 12.0042 11.9897C-1.66837 25.6458 -3.65737 46.6064 6.01691 62.3977C6.39577 61.8098 6.83554 61.2422 7.35646 60.7219Z"
        fill="#F1C20A" />
    <path
        d="M76.0772 19.598C75.6915 20.1994 75.2518 20.7602 74.7376 21.2738C73.6282 22.3819 72.3022 23.1793 70.8612 23.659C78.5465 36.8489 76.7469 54.0795 65.4422 65.3639C54.1375 76.6483 36.8862 78.4524 23.6804 70.7763C23.2069 72.2156 22.4018 73.5467 21.2923 74.6481C20.7781 75.1617 20.2098 75.6077 19.6145 75.9861C26.17 79.9863 33.605 81.9999 41.0468 81.9999C51.5667 81.9999 62.0799 77.9997 70.0899 70.006C83.7625 56.3499 85.7514 35.3894 76.0772 19.598Z"
        fill="#F1C20A" />
    <path
        d="M67.7631 19.2399C70.4869 19.2399 72.6949 17.0345 72.6949 14.314C72.6949 11.5935 70.4869 9.38806 67.7631 9.38806C65.0393 9.38806 62.8313 11.5935 62.8313 14.314C62.8313 17.0345 65.0393 19.2399 67.7631 19.2399Z"
        fill="#F1C20A" />
    <path
        d="M14.325 72.6076C17.0488 72.6076 19.2568 70.4022 19.2568 67.6817C19.2568 64.9612 17.0488 62.7558 14.325 62.7558C11.6012 62.7558 9.39307 64.9612 9.39307 67.6817C9.39307 70.4022 11.6012 72.6076 14.325 72.6076Z"
        fill="#F1C20A" />
</svg>
