<svg width="100" height="30" viewBox="0 0 100 30" fill="none" xmlns="http://www.w3.org/2000/svg">
<path d="M8.81476 3.11456H24.9897V6.71372H8.81476V3.11456Z" fill="#D00D0D"/>
<path d="M24.9897 9.71372H8.81476V13.5611H14.7414V24.6068H19.063V13.5611H24.9897V9.71372Z" fill="#D00D0D"/>
<path d="M33.9094 24.6068C32.4629 24.6068 31.1321 24.2836 29.917 23.6371C28.7164 22.9906 27.7617 22.0965 27.0529 20.9548C26.3441 19.8131 25.9897 18.527 25.9897 17.0965C25.9897 15.666 26.3441 14.3799 27.0529 13.2382C27.7617 12.0965 28.7164 11.2093 29.917 10.5765C31.1321 9.93006 32.4629 9.60681 33.9094 9.60681C35.356 9.60681 36.6795 9.93006 37.8802 10.5765C39.0808 11.2093 40.0283 12.0965 40.7226 13.2382C41.4314 14.3799 41.7858 15.666 41.7858 17.0965C41.7858 18.527 41.4314 19.8131 40.7226 20.9548C40.0283 22.0965 39.0735 22.9906 37.8585 23.6371C36.6578 24.2836 35.3415 24.6068 33.9094 24.6068ZM33.9094 20.3358C34.8641 20.3358 35.6019 20.047 36.1226 19.4693C36.6434 18.8778 36.9037 18.0869 36.9037 17.0965C36.9037 16.0924 36.6434 15.3014 36.1226 14.7237C35.6019 14.1323 34.8641 13.8365 33.9094 13.8365C32.9403 13.8365 32.1953 14.1323 31.6745 14.7237C31.1538 15.3014 30.8934 16.0924 30.8934 17.0965C30.8934 18.0869 31.1538 18.8778 31.6745 19.4693C32.1953 20.047 32.9403 20.3358 33.9094 20.3358Z" fill="#1E1E1E"/>
<path d="M49.9244 9.8544C51.53 9.8544 52.9332 10.1639 54.1338 10.7829C55.3489 11.4019 56.2819 12.2616 56.9328 13.362C57.5838 14.4624 57.9092 15.7141 57.9092 17.1171C57.9092 18.5064 57.5838 19.7581 56.9328 20.8723C56.2819 21.9865 55.3489 22.8668 54.1338 23.5133C52.9332 24.146 51.53 24.4624 49.9244 24.4624H43.5235V9.8544H49.9244ZM49.4904 20.3771C50.5753 20.3771 51.436 20.0951 52.0725 19.5312C52.7089 18.9672 53.0272 18.1625 53.0272 17.1171C53.0272 16.0717 52.7089 15.2671 52.0725 14.7031C51.436 14.1391 50.5753 13.8572 49.4904 13.8572H48.3404V20.3771H49.4904Z" fill="#1E1E1E"/>
<path d="M69.4995 22.2547H64.3788L63.6193 24.4624H58.5637L64.1835 9.8544H69.7382L75.3362 24.4624H70.2589L69.4995 22.2547ZM68.3278 18.809L66.9391 14.7444L65.5505 18.809H68.3278Z" fill="#1E1E1E"/>
<path d="M91.1852 9.8544L85.6739 20.0263V24.4624H80.857V20.0263L75.3457 9.8544H80.857L83.3089 15.0332L85.7607 9.8544H91.1852Z" fill="#1E1E1E"/>
</svg>
