<svg width="24" height="24" viewBox="0 0 24 24" fill="none" xmlns="http://www.w3.org/2000/svg">
    <mask id="mask0_535_2920" style="mask-type:alpha" maskUnits="userSpaceOnUse" x="0" y="0"
        width="24" height="24">
        <rect width="24" height="24" fill="#D9D9D9" />
    </mask>
    <g mask="url(#mask0_535_2920)">
        <path
            d="M12 20.4617L11.1539 17.9244H5.23075C4.76537 17.9244 4.36698 17.7588 4.03558 17.4275C3.70416 17.0963 3.53845 16.6981 3.53845 16.2329V5.23825C3.53845 4.77308 3.70416 4.37352 4.03558 4.03955C4.36698 3.70557 4.76537 3.53857 5.23075 3.53857H10.3077L11.0481 6.07582H18.7693C19.2628 6.07582 19.6683 6.2344 19.9856 6.55155C20.3029 6.8687 20.4616 7.27395 20.4616 7.7673V18.762C20.4616 19.2272 20.3029 19.6267 19.9856 19.9607C19.6683 20.2947 19.2628 20.4617 18.7693 20.4617H12ZM7.90848 14.1963C8.88616 14.1963 9.68494 13.8825 10.3048 13.2549C10.9247 12.6274 11.2346 11.8129 11.2346 10.8116C11.2346 10.6655 11.2337 10.5511 11.2317 10.4684C11.2298 10.3857 11.2147 10.3052 11.1863 10.227H7.825V11.527H9.72308C9.60256 11.9296 9.38685 12.2408 9.07595 12.4607C8.76505 12.6806 8.38332 12.7905 7.93075 12.7905C7.37917 12.7905 6.90538 12.5892 6.50938 12.1867C6.11338 11.7841 5.91538 11.2988 5.91538 10.7309C5.91538 10.1629 6.11218 9.67769 6.50578 9.27512C6.89938 8.87256 7.37029 8.67127 7.91853 8.67127C8.17156 8.67127 8.40898 8.71582 8.63078 8.80492C8.85256 8.89402 9.05897 9.03409 9.25 9.22512L10.2827 8.24242C9.98399 7.93986 9.62684 7.7014 9.21128 7.52705C8.79573 7.35268 8.35553 7.2655 7.89068 7.2655C6.94689 7.2655 6.14006 7.60364 5.47018 8.27992C4.80031 8.95621 4.46538 9.7732 4.46538 10.7309C4.46538 11.6886 4.80189 12.5056 5.47493 13.1818C6.14796 13.8581 6.95914 14.1963 7.90848 14.1963ZM13.5616 14.6193L14.0346 14.1713C13.8397 13.9264 13.6561 13.6931 13.4837 13.4713C13.3112 13.2495 13.1526 13.0142 13.0077 12.7655L13.5616 14.6193ZM14.6192 13.5367C15.0166 13.0731 15.3182 12.6306 15.524 12.2092C15.7298 11.7878 15.868 11.4546 15.9385 11.2097H12.5789L12.8289 12.1039H13.6622C13.7733 12.3168 13.9072 12.5457 14.0638 12.7908C14.2205 13.0359 14.4056 13.2846 14.6192 13.5367ZM12.8462 19.6155H18.7693C19.0231 19.6155 19.2276 19.5345 19.3827 19.3724C19.5378 19.2103 19.6154 19.0095 19.6154 18.7699V7.7768C19.6154 7.52312 19.5379 7.31742 19.3829 7.15972C19.2279 7.00204 19.0236 6.9232 18.77 6.9232H11.3096L12.3006 10.3578H13.9663V9.46735H14.8308V10.3578H17.9231V11.2097H16.841C16.6996 11.7405 16.491 12.261 16.2154 12.7713C15.9398 13.2815 15.609 13.7565 15.2231 14.1963L17.525 16.4674L16.9154 17.077L14.6192 14.8001L13.8539 15.5713L14.5385 17.9232L12.8462 19.6155Z"
            fill="#1C1B1F" />
    </g>
</svg>
