<svg width="184" height="32" viewBox="0 0 184 32" fill="none" xmlns="http://www.w3.org/2000/svg">
<path d="M174.914 18.7152C174.156 17.9584 171.651 17.1093 168.493 15.2635C167.239 14.5304 166.162 13.5231 165.359 12.3128C164.031 10.3167 163.498 9.12213 163.126 8.75296C162.373 8.00408 161.156 8.00144 160.406 8.75296C159.654 9.50184 159.654 10.7201 160.406 11.469C160.776 11.8382 161.977 12.3734 163.979 13.7025C165.188 14.5067 166.199 15.5799 166.93 16.8325C168.776 19.9836 169.623 22.4834 170.381 23.2402C171.632 24.4901 173.662 24.4901 174.914 23.2402C176.168 21.9929 176.168 19.9678 174.914 18.7152Z" fill="#F1C20A"/>
<path d="M171.017 6.67243C171.471 7.12598 171.983 8.62902 173.09 10.5197C173.53 11.2712 174.135 11.9173 174.861 12.3972C176.06 13.1935 176.778 13.5126 177 13.7341C177.451 14.185 177.451 14.9128 177 15.3637C176.548 15.8146 175.819 15.8146 175.368 15.3637C175.146 15.1422 174.824 14.4223 174.024 13.2225C173.541 12.4974 172.897 11.8935 172.144 11.4532C170.251 10.3483 168.749 9.83937 168.295 9.38582C167.543 8.63693 167.543 7.41868 168.295 6.66979C169.048 5.92091 170.265 5.92091 171.017 6.67243Z" fill="#F1C20A"/>
<path d="M161.494 16.1811C161.948 16.6347 162.461 18.1377 163.567 20.0284C164.008 20.7799 164.612 21.426 165.338 21.9059C166.537 22.7022 167.255 23.0213 167.477 23.2428C167.928 23.6937 167.928 24.4215 167.477 24.8724C167.025 25.3233 166.297 25.3233 165.845 24.8724C165.623 24.6509 165.301 23.931 164.501 22.7312C164.018 22.0061 163.374 21.4022 162.622 20.9619C160.729 19.857 159.226 19.3481 158.772 18.8945C158.02 18.1456 158.02 16.9274 158.772 16.1785C159.527 15.4296 160.744 15.4296 161.494 16.1811Z" fill="#F1C20A"/>
<path d="M154.514 23.6964C154.947 23.2639 155.464 22.9527 156.027 22.7655C153.028 17.6183 153.73 10.8941 158.141 6.49047C160.766 3.86938 164.214 2.55883 167.662 2.55883C170.009 2.55883 172.353 3.16796 174.441 4.38094C174.623 3.82719 174.93 3.30772 175.371 2.86735C175.571 2.66695 175.793 2.49291 176.025 2.34524C169.853 -1.42555 161.663 -0.650293 156.328 4.67891C150.992 10.0081 150.216 18.1878 153.991 24.3503C154.139 24.1209 154.311 23.8994 154.514 23.6964Z" fill="#F1C20A"/>
<path d="M181.332 7.64807C181.181 7.88276 181.01 8.10162 180.809 8.30203C180.376 8.73448 179.859 9.04564 179.296 9.23286C182.296 14.3801 181.593 21.1043 177.182 25.5079C172.77 29.9116 166.038 30.6156 160.884 27.6201C160.7 28.1817 160.385 28.7012 159.952 29.131C159.752 29.3314 159.53 29.5055 159.298 29.6531C161.856 31.2142 164.757 32 167.662 32C171.767 32 175.87 30.4389 178.995 27.3195C184.331 21.9903 185.107 13.8105 181.332 7.64807Z" fill="#F1C20A"/>
<path d="M178.087 7.50832C179.15 7.50832 180.012 6.64767 180.012 5.58601C180.012 4.52434 179.15 3.6637 178.087 3.6637C177.024 3.6637 176.163 4.52434 176.163 5.58601C176.163 6.64767 177.024 7.50832 178.087 7.50832Z" fill="#F1C20A"/>
<path d="M157.233 28.3347C158.296 28.3347 159.158 27.474 159.158 26.4124C159.158 25.3507 158.296 24.4901 157.233 24.4901C156.17 24.4901 155.308 25.3507 155.308 26.4124C155.308 27.474 156.17 28.3347 157.233 28.3347Z" fill="#F1C20A"/>
<path d="M140.962 0.0010376H140.606V32H140.962V0.0010376Z" fill="#140C33"/>
<path d="M0.641568 13.0933C1.0719 12.2601 1.658 11.6166 2.40251 11.1684C3.14701 10.7201 3.97336 10.4933 4.88683 10.4933C5.57853 10.4933 6.2412 10.6436 6.86954 10.9469C7.49788 11.2475 7.9995 11.6509 8.37175 12.1493V5.33551H11.1042V21.3337H8.37175V19.7542C8.0391 20.2815 7.56916 20.7035 6.96722 21.0252C6.36264 21.3469 5.66566 21.5077 4.86835 21.5077C3.97072 21.5077 3.14965 21.2757 2.40515 20.8142C1.66064 20.3527 1.07454 19.7014 0.644207 18.8603C0.213872 18.0191 2.41469e-05 17.054 2.41469e-05 15.9623C-0.00261594 14.8838 0.211233 13.9292 0.641568 13.0933ZM8.00478 14.3168C7.74869 13.8475 7.4002 13.4889 6.96458 13.2383C6.52897 12.9878 6.05903 12.8639 5.56005 12.8639C5.05844 12.8639 4.59642 12.9852 4.17401 13.2304C3.75159 13.4757 3.40574 13.8317 3.14437 14.2984C2.88036 14.7678 2.751 15.3215 2.751 15.9649C2.751 16.6057 2.883 17.1674 3.14437 17.6499C3.40838 18.1325 3.75423 18.499 4.18457 18.7574C4.6149 19.0132 5.07428 19.1424 5.56005 19.1424C6.06167 19.1424 6.52897 19.0185 6.96458 18.768C7.4002 18.5175 7.74605 18.1588 8.00478 17.6895C8.26087 17.2201 8.39023 16.6584 8.39023 16.0045C8.38759 15.3452 8.26087 14.7862 8.00478 14.3168Z" fill="#140C33"/>
<path d="M22.2481 11.7169C23.0295 12.5185 23.4229 13.6392 23.4229 15.0763V21.3337H20.7274V15.4428C20.7274 14.5964 20.5162 13.945 20.0911 13.4889C19.6687 13.0327 19.0905 12.8059 18.3592 12.8059C17.6147 12.8059 17.0286 13.0327 16.5983 13.4889C16.1679 13.945 15.9541 14.5964 15.9541 15.4428V21.3337H13.2585V10.6674H15.9541V11.9964C16.3131 11.5349 16.7725 11.171 17.3296 10.9073C17.8866 10.6436 18.4991 10.5118 19.1671 10.5118C20.437 10.5144 21.4639 10.9152 22.2481 11.7169Z" fill="#140C33"/>
<path d="M25.4532 13.0933C25.8835 12.2601 26.467 11.6166 27.2035 11.1684C27.9401 10.7201 28.7665 10.4933 29.6773 10.4933C30.472 10.4933 31.169 10.6542 31.7656 10.9759C32.3623 11.2976 32.8401 11.701 33.1992 12.1889V10.6674H35.9132V21.3337H33.1992V19.7753C32.8533 20.2763 32.3755 20.6903 31.7656 21.0172C31.1558 21.3442 30.4535 21.5077 29.6588 21.5077C28.7612 21.5077 27.9428 21.2757 27.2035 20.8142C26.4643 20.3527 25.8809 19.7014 25.4532 18.8602C25.0228 18.0191 24.809 17.054 24.809 15.9623C24.8063 14.8838 25.0228 13.9292 25.4532 13.0933ZM32.8137 14.3168C32.5576 13.8475 32.2092 13.4889 31.7735 13.2383C31.3379 12.9878 30.868 12.8639 30.369 12.8639C29.8674 12.8639 29.4054 12.9852 28.983 13.2304C28.5606 13.4757 28.2147 13.8317 27.9533 14.2984C27.6893 14.7678 27.56 15.3215 27.56 15.9649C27.56 16.6057 27.692 17.1674 27.9533 17.6499C28.2173 18.1325 28.5632 18.499 28.9935 18.7574C29.4239 19.0132 29.8832 19.1424 30.369 19.1424C30.8706 19.1424 31.3379 19.0185 31.7735 18.768C32.2092 18.5175 32.555 18.1588 32.8137 17.6895C33.0698 17.2201 33.1992 16.6584 33.1992 16.0045C33.1992 15.3452 33.0698 14.7862 32.8137 14.3168Z" fill="#140C33"/>
<path d="M40.8739 11.3556C41.6659 10.8045 42.6243 10.5302 43.7516 10.5302C44.7469 10.5302 45.634 10.7544 46.4128 11.1974C47.1916 11.643 47.8015 12.2785 48.2397 13.1039C48.678 13.9292 48.8971 14.8917 48.8971 15.9913C48.8971 17.0909 48.678 18.056 48.2397 18.8893C47.8015 19.7199 47.1916 20.3633 46.4128 20.8142C45.634 21.2651 44.7469 21.4919 43.7516 21.4919C42.6375 21.4919 41.6871 21.215 40.895 20.656C40.103 20.0996 39.5486 19.3956 39.2344 18.5438V26.6655H38.35V10.6674H39.2344V13.4757C39.5354 12.6108 40.0819 11.9041 40.8739 11.3556ZM47.4451 13.4757C47.0781 12.769 46.5633 12.2284 45.9033 11.854C45.2433 11.4795 44.4803 11.2949 43.6143 11.2949C42.7906 11.2949 42.0435 11.4874 41.3755 11.8751C40.7076 12.2627 40.1848 12.8112 39.8047 13.5258C39.4245 14.2404 39.2344 15.0605 39.2344 15.9913C39.2344 16.9353 39.4245 17.7633 39.8047 18.4753C40.1848 19.1899 40.7076 19.7384 41.3755 20.126C42.0435 20.5136 42.7906 20.7061 43.6143 20.7061C44.4776 20.7061 45.2406 20.5162 45.9033 20.1365C46.5633 19.7568 47.0781 19.2136 47.4451 18.5069C47.8121 17.8002 47.9942 16.9617 47.9942 15.9913C47.9942 15.0209 47.8094 14.1824 47.4451 13.4757Z" fill="#140C33"/>
<path d="M51.1861 13.1039C51.6243 12.2785 52.2342 11.643 53.013 11.1974C53.7918 10.7517 54.6789 10.5302 55.6742 10.5302C56.7989 10.5302 57.7573 10.8045 58.5414 11.3556C59.3281 11.9067 59.8772 12.6055 60.1914 13.4572V10.6674H61.0758V21.3337H60.1914V18.5254C59.8772 19.3903 59.3228 20.0996 58.5308 20.656C57.7388 21.2124 56.7857 21.4919 55.6742 21.4919C54.6789 21.4919 53.7918 21.2651 53.013 20.8142C52.2342 20.3633 51.6243 19.7199 51.1861 18.8893C50.7478 18.0586 50.5287 17.0909 50.5287 15.9913C50.5287 14.8917 50.7478 13.9292 51.1861 13.1039ZM59.6106 13.5258C59.2251 12.8112 58.6971 12.2627 58.0292 11.8751C57.3612 11.4901 56.6141 11.2949 55.7904 11.2949C54.9271 11.2949 54.1667 11.4822 53.512 11.854C52.8572 12.2284 52.3477 12.7663 51.9807 13.4757C51.6138 14.1824 51.4316 15.0209 51.4316 15.9913C51.4316 16.9617 51.6138 17.7976 51.9807 18.5069C52.3477 19.2136 52.8625 19.7568 53.5225 20.1365C54.1826 20.5162 54.9403 20.7061 55.7904 20.7061C56.6141 20.7061 57.3639 20.5136 58.0397 20.126C58.713 19.741 59.241 19.1899 59.6212 18.4753C60.0013 17.7607 60.1914 16.9327 60.1914 15.9913C60.1888 15.0605 59.996 14.2404 59.6106 13.5258Z" fill="#140C33"/>
<path d="M72.1299 10.6674L65.799 26.6682H64.8961L67.0029 21.3337L62.5253 10.6674H63.4863L67.4939 20.3528L71.2244 10.6674H72.1299Z" fill="#140C33"/>
<path d="M89.1955 11.6193C89.969 12.3998 90.3545 13.5548 90.3545 15.0868V21.3337H89.4912V15.1449C89.4912 13.8739 89.1876 12.9035 88.5777 12.2284C87.9678 11.5534 87.1336 11.2158 86.0749 11.2158C84.974 11.2158 84.0922 11.5956 83.4242 12.355C82.7563 13.1144 82.4237 14.214 82.4237 15.6564V21.3337H81.5603V15.1449C81.5603 13.8739 81.2567 12.9035 80.6469 12.2284C80.037 11.5534 79.2027 11.2158 78.1441 11.2158C77.0432 11.2158 76.1614 11.5956 75.4934 12.355C74.8255 13.1144 74.4928 14.214 74.4928 15.6564V21.3337H73.6084V10.6674H74.4928V12.9852C74.7938 12.1467 75.2822 11.5165 75.9554 11.0893C76.6287 10.6647 77.4048 10.4511 78.284 10.4511C79.2529 10.4511 80.0872 10.7043 80.7868 11.2079C81.4864 11.7116 81.9669 12.4552 82.2309 13.4388C82.4791 12.4552 82.9649 11.7142 83.683 11.2079C84.4037 10.7043 85.2485 10.4511 86.2175 10.4511C87.4293 10.4511 88.4246 10.8414 89.1955 11.6193Z" fill="#140C33"/>
<path d="M102.57 16.3446H93.3589C93.3853 17.3018 93.5939 18.1061 93.9872 18.7601C94.3806 19.414 94.8981 19.9071 95.5396 20.2341C96.1811 20.5611 96.8808 20.7246 97.6411 20.7246C98.6892 20.7246 99.5657 20.4661 100.273 19.9493C100.981 19.4325 101.424 18.7284 101.609 17.8371H102.533C102.325 18.9235 101.786 19.8043 100.923 20.4793C100.059 21.1544 98.9664 21.4919 97.6438 21.4919C96.6484 21.4919 95.7587 21.2704 94.972 20.8248C94.1852 20.3791 93.5701 19.741 93.1266 18.9104C92.6804 18.0797 92.4586 17.1067 92.4586 15.9939C92.4586 14.8812 92.6777 13.9108 93.116 13.0854C93.5543 12.2601 94.1668 11.6298 94.9535 11.1895C95.7402 10.7517 96.6352 10.5302 97.6438 10.5302C98.6655 10.5302 99.5525 10.7491 100.305 11.1895C101.057 11.6272 101.63 12.21 102.024 12.9377C102.417 13.6655 102.612 14.4461 102.612 15.2846C102.61 15.754 102.597 16.11 102.57 16.3446ZM101.226 13.2199C100.854 12.5659 100.345 12.0781 99.703 11.7564C99.0615 11.4347 98.3671 11.2739 97.62 11.2739C96.8728 11.2739 96.1838 11.4347 95.5475 11.7564C94.9113 12.0781 94.3964 12.5659 93.9952 13.2199C93.5965 13.8739 93.3826 14.6728 93.3562 15.6169H101.723C101.765 14.6755 101.599 13.8765 101.226 13.2199Z" fill="#140C33"/>
<path d="M112.705 11.6193C113.503 12.3998 113.904 13.5548 113.904 15.0868V21.3337H113.041V15.1449C113.041 13.8739 112.719 12.9035 112.08 12.2284C111.438 11.5534 110.567 11.2158 109.469 11.2158C108.318 11.2158 107.396 11.5824 106.71 12.3154C106.023 13.0485 105.678 14.1349 105.678 15.5773V21.3337H104.793V10.6674H105.678V12.9272C105.978 12.1282 106.48 11.5165 107.18 11.0893C107.879 10.6647 108.69 10.4511 109.606 10.4511C110.871 10.4511 111.905 10.8414 112.705 11.6193Z" fill="#140C33"/>
<path d="M117.851 11.4321V18.4858C117.851 19.2716 117.994 19.8122 118.284 20.1075C118.572 20.4028 119.081 20.5505 119.815 20.5505H121.011V21.3363H119.675C118.746 21.3363 118.062 21.1175 117.624 20.6771C117.186 20.2394 116.967 19.5089 116.967 18.4858V11.4321H115.356V10.6647H116.967V7.11279H117.851V10.6674H121.011V11.4347H117.851V11.4321Z" fill="#140C33"/>
<path d="M123.496 20.7061C122.743 20.1814 122.321 19.4351 122.228 18.4674H123.131C123.197 19.1609 123.514 19.712 124.084 20.1181C124.655 20.5242 125.431 20.7272 126.413 20.7272C127.223 20.7272 127.87 20.5215 128.348 20.1075C128.826 19.6962 129.066 19.1872 129.066 18.586C129.066 18.1668 128.939 17.824 128.683 17.555C128.427 17.286 128.11 17.0803 127.73 16.9353C127.35 16.7903 126.833 16.6347 126.178 16.4633C125.391 16.255 124.757 16.0467 124.272 15.8436C123.789 15.6406 123.374 15.3373 123.033 14.9313C122.693 14.5252 122.524 13.982 122.524 13.3016C122.524 12.8033 122.674 12.3418 122.975 11.9173C123.276 11.4927 123.696 11.1552 124.232 10.9047C124.768 10.6568 125.378 10.5302 126.059 10.5302C127.171 10.5302 128.071 10.8098 128.76 11.3661C129.446 11.9225 129.816 12.6925 129.869 13.6734H128.984C128.945 12.9668 128.67 12.3893 128.161 11.9436C127.651 11.498 126.943 11.2765 126.041 11.2765C125.28 11.2765 124.652 11.4743 124.156 11.8672C123.659 12.2601 123.408 12.7373 123.408 13.3016C123.408 13.8 123.548 14.2008 123.831 14.5093C124.113 14.8179 124.459 15.0526 124.871 15.216C125.283 15.3795 125.829 15.5536 126.511 15.7355C127.258 15.9306 127.857 16.1258 128.308 16.3156C128.76 16.5055 129.143 16.7797 129.457 17.141C129.771 17.5022 129.927 17.9822 129.927 18.586C129.927 19.1371 129.776 19.6329 129.475 20.0785C129.174 20.5242 128.755 20.8722 128.219 21.1201C127.683 21.368 127.081 21.4945 126.413 21.4945C125.22 21.4919 124.248 21.2282 123.496 20.7061Z" fill="#140C33"/>
</svg>
