<svg width="24" height="24" viewBox="0 0 24 24" fill="none" xmlns="http://www.w3.org/2000/svg">
<g clip-path="url(#clip0_1978_2849)">
<path d="M3 3.00024H20.9553V12.6931L20.0666 14.0817L20.9553 15.3176V20.9555H3V11.8182L3.55546 11.1794L3 10.5684V3.00024Z" fill="#016FD0"/>
<path d="M6.48535 15.5118V12.6929H9.47012L9.79035 13.1103L10.1212 12.6929H20.9551V15.3174C20.9551 15.3174 20.6718 15.509 20.3441 15.5118H14.3451L13.9841 15.0675V15.5118H12.801V14.7533C12.801 14.7533 12.6393 14.8592 12.2899 14.8592H11.8872V15.5118H10.0959L9.77608 15.0854L9.45139 15.5118H6.48535Z" fill="white"/>
<path d="M3 10.5682L3.67308 8.99902H4.83709L5.21907 9.87801V8.99902H6.66605L6.89344 9.63433L7.11389 8.99902H13.6093V9.31841C13.6093 9.31841 13.9508 8.99902 14.5119 8.99902L16.6195 9.00639L16.9949 9.87387V8.99902H18.2058L18.539 9.49732V8.99902H19.7611V11.818H18.539L18.2197 11.3181V11.818H16.4406L16.2617 11.3736H15.7834L15.6074 11.818H14.4009C13.918 11.818 13.6093 11.5051 13.6093 11.5051V11.818H11.7902L11.4291 11.3736V11.818H4.66465L4.48586 11.3736H4.00911L3.83158 11.818H3V10.5682Z" fill="white"/>
<path d="M3.91174 9.34668L3.00391 11.4574H3.59495L3.76246 11.0348H4.73625L4.90289 11.4574H5.50696L4.59999 9.34668H3.91174ZM4.24762 9.83792L4.54444 10.5765H3.94993L4.24762 9.83792Z" fill="#016FD0"/>
<path d="M5.56934 11.4569V9.34619L6.40925 9.34931L6.89777 10.7102L7.37459 9.34619H8.20778V11.4569H7.68009V9.90165L7.12073 11.4569H6.65795L6.09702 9.90165V11.4569H5.56934Z" fill="#016FD0"/>
<path d="M8.56836 11.4569V9.34619H10.2903V9.81834H9.1016V10.1794H10.2625V10.6238H9.1016V10.9987H10.2903V11.4569H8.56836Z" fill="#016FD0"/>
<path d="M10.5957 9.34668V11.4574H11.1234V10.7076H11.3456L11.9783 11.4574H12.6231L11.9288 10.6798C12.2138 10.6557 12.5077 10.4112 12.5077 10.0315C12.5077 9.58728 12.1591 9.34668 11.77 9.34668H10.5957ZM11.1234 9.81882H11.7266C11.8713 9.81882 11.9765 9.93201 11.9765 10.041C11.9765 10.1812 11.8402 10.2632 11.7344 10.2632H11.1234V9.81882Z" fill="#016FD0"/>
<path d="M13.2624 11.4569H12.7236V9.34619H13.2624V11.4569Z" fill="#016FD0"/>
<path d="M14.5402 11.4569H14.4239C13.8612 11.4569 13.5195 11.0136 13.5195 10.4102C13.5195 9.79197 13.8574 9.34619 14.568 9.34619H15.1512V9.84611H14.5466C14.2582 9.84611 14.0542 10.0712 14.0542 10.4155C14.0542 10.8242 14.2874 10.9959 14.6235 10.9959H14.7624L14.5402 11.4569Z" fill="#016FD0"/>
<path d="M15.6881 9.34668L14.7803 11.4574H15.3713L15.5388 11.0348H16.5126L16.6793 11.4574H17.2833L16.3764 9.34668H15.6881ZM16.024 9.83792L16.3208 10.5765H15.7263L16.024 9.83792Z" fill="#016FD0"/>
<path d="M17.3447 11.4569V9.34619H18.0156L18.8722 10.6724V9.34619H19.3999V11.4569H18.7507L17.8724 10.0961V11.4569H17.3447Z" fill="#016FD0"/>
<path d="M6.84668 15.1508V13.04H8.56861V13.5122H7.37992V13.8732H8.54084V14.3176H7.37992V14.6925H8.56861V15.1508H6.84668Z" fill="#016FD0"/>
<path d="M15.2842 15.1508V13.04H17.0061V13.5122H15.8174V13.8732H16.9728V14.3176H15.8174V14.6925H17.0061V15.1508H15.2842Z" fill="#016FD0"/>
<path d="M8.6352 15.1508L9.4736 14.1084L8.61523 13.04H9.28005L9.79125 13.7005L10.3042 13.04H10.943L10.0959 14.0954L10.9358 15.1508H10.2711L9.77476 14.5007L9.29047 15.1508H8.6352Z" fill="#016FD0"/>
<path d="M10.999 13.0403V15.151H11.5406V14.4845H12.0961C12.5661 14.4845 12.9223 14.2351 12.9223 13.7502C12.9223 13.3485 12.6429 13.0403 12.1646 13.0403H10.999ZM11.5406 13.5176H12.1256C12.2774 13.5176 12.3859 13.6107 12.3859 13.7606C12.3859 13.9015 12.278 14.0037 12.1238 14.0037H11.5406V13.5176Z" fill="#016FD0"/>
<path d="M13.1514 13.04V15.1508H13.6791V14.4009H13.9012L14.5339 15.1508H15.1788L14.4845 14.3731C14.7694 14.3491 15.0634 14.1045 15.0634 13.7248C15.0634 13.2806 14.7147 13.04 14.3256 13.04H13.1514ZM13.6791 13.5122H14.2823C14.427 13.5122 14.5322 13.6254 14.5322 13.7344C14.5322 13.8746 14.3958 13.9566 14.2901 13.9566H13.6791V13.5122Z" fill="#016FD0"/>
<path d="M17.2506 15.1508V14.6925H18.3067C18.4629 14.6925 18.5306 14.6081 18.5306 14.5155C18.5306 14.4268 18.4631 14.337 18.3067 14.337H17.8294C17.4146 14.337 17.1836 14.0843 17.1836 13.7049C17.1836 13.3664 17.3952 13.04 18.0116 13.04H19.0392L18.817 13.515H17.9283C17.7584 13.515 17.7061 13.6041 17.7061 13.6892C17.7061 13.7767 17.7707 13.8732 17.9005 13.8732H18.4004C18.8628 13.8732 19.0635 14.1355 19.0635 14.479C19.0635 14.8483 18.8399 15.1508 18.3752 15.1508H17.2506Z" fill="#016FD0"/>
<path d="M19.1871 15.1508V14.6925H20.2432C20.3995 14.6925 20.4671 14.6081 20.4671 14.5155C20.4671 14.4268 20.3997 14.337 20.2432 14.337H19.766C19.3511 14.337 19.1201 14.0843 19.1201 13.7049C19.1201 13.3664 19.3317 13.04 19.9481 13.04H20.9757L20.7535 13.515H19.8648C19.6949 13.515 19.6426 13.6041 19.6426 13.6892C19.6426 13.7767 19.7072 13.8732 19.837 13.8732H20.3369C20.7994 13.8732 21 14.1355 21 14.479C21 14.8483 20.7764 15.1508 20.3118 15.1508H19.1871Z" fill="#016FD0"/>
</g>
<defs>
<clipPath id="clip0_1978_2849">
<rect width="18" height="17.9553" fill="white" transform="translate(3 3)"/>
</clipPath>
</defs>
</svg>
