<svg width="24" height="24" viewBox="0 0 24 24" fill="none" xmlns="http://www.w3.org/2000/svg">
<g clip-path="url(#clip0_611_33200)">
<path d="M2.46667 9.15161L1 13.4486H1.86263L2.27677 12.194H3.46667L3.89293 13.4486H4.77374L3.30505 9.15161H2.46667ZM3.25859 11.4809H2.48687L2.80808 10.5334C2.8303 10.4688 2.8505 10.4041 2.86869 10.3415C2.88889 10.4062 2.90909 10.4728 2.93333 10.5415L3.25859 11.4809Z" fill="black"/>
<path d="M6.22197 11.493C5.82601 11.3354 5.78156 11.2627 5.78156 11.1476C5.78156 11.0021 5.90278 10.9132 6.09874 10.9132C6.33106 10.9132 6.51288 11.0061 6.59975 11.0607L6.76944 11.1678L6.99369 10.4849L6.89267 10.4203C6.69874 10.293 6.40581 10.2183 6.10884 10.2183C5.44621 10.2183 4.9654 10.6364 4.9654 11.2142C4.9654 11.7455 5.43611 12.0284 5.83005 12.1718C6.22399 12.3193 6.25429 12.4203 6.25429 12.5455C6.25429 12.7799 6.00783 12.8142 5.86035 12.8142C5.63207 12.8142 5.38762 12.7173 5.24823 12.6344L5.08055 12.5354L4.86035 13.2284L4.96742 13.291C5.20783 13.4324 5.53106 13.5132 5.85025 13.5132C6.57954 13.5132 7.07045 13.1031 7.07045 12.493C7.07045 11.8809 6.58358 11.6284 6.22197 11.493Z" fill="black"/>
<path d="M8.36523 9.5354L7.54503 9.78389V10.2748H7.10059V10.9819H7.54503V12.3879C7.54503 12.7798 7.62382 13.0607 7.78745 13.2445C7.94705 13.4182 8.18745 13.5152 8.46422 13.5152C8.71271 13.5152 8.89251 13.4647 8.97735 13.4344L9.08846 13.396L9.04604 12.6849L8.85614 12.7415C8.79958 12.7576 8.73493 12.7697 8.59958 12.7697C8.50059 12.7697 8.36523 12.7697 8.36523 12.3697V10.9819H9.11069V10.2748H8.36523V9.5354Z" fill="black"/>
<path d="M11.1112 10.2464L10.9617 10.2262C10.9172 10.2202 10.8728 10.2141 10.8142 10.2141C10.5556 10.2141 10.3152 10.3212 10.1334 10.507L10.1233 10.2747H9.35156L9.36166 10.4404C9.37783 10.6848 9.38591 10.9656 9.38591 11.3232V13.4485H10.2182V11.7676C10.2182 11.6889 10.2243 11.6101 10.2324 11.5535C10.293 11.2242 10.5011 11.0182 10.7778 11.0182C10.8425 11.0182 10.8849 11.0182 10.9213 11.0262L11.1112 11.0666V10.2464Z" fill="black"/>
<path d="M12.6285 10.2161C11.7012 10.2161 11.0527 10.9029 11.0527 11.8868C11.0527 12.8464 11.681 13.5151 12.58 13.5151C13.3416 13.5151 14.1618 12.9898 14.1618 11.8383C14.1638 10.8827 13.5315 10.2161 12.6285 10.2161ZM13.3194 11.8565C13.3194 12.41 13.0204 12.812 12.6063 12.812C12.1962 12.812 11.8992 12.414 11.8992 11.8686C11.8992 11.5151 12.0507 10.9191 12.6184 10.9191C13.1719 10.9171 13.3194 11.5312 13.3194 11.8565Z" fill="black"/>
<path d="M16.891 9.49281C16.6183 9.24635 16.2062 9.12109 15.6688 9.12109C15.3092 9.12109 14.9678 9.14736 14.6547 9.19988L14.5254 9.2221V13.4484H15.3517V11.8787C15.4365 11.8868 15.5254 11.8888 15.6102 11.8888C16.1678 11.8888 16.6405 11.7171 16.9395 11.4039C17.1739 11.1635 17.291 10.8403 17.291 10.4443C17.291 10.0605 17.1496 9.72311 16.891 9.49281ZM16.4648 10.4726C16.4648 11.0726 15.9355 11.1635 15.6203 11.1635C15.5153 11.1635 15.4264 11.1595 15.3517 11.1494V9.85847C15.4325 9.84837 15.5416 9.84231 15.6809 9.84231C16.0385 9.84231 16.4648 9.9514 16.4648 10.4726Z" fill="black"/>
<path d="M19.8219 12.608V11.5373C19.8219 10.6848 19.3795 10.2161 18.5774 10.2161C18.2057 10.2161 17.8199 10.3171 17.5492 10.4888L17.4441 10.5534L17.6684 11.214L17.8381 11.0989C18.0098 10.9817 18.2583 10.913 18.5027 10.913C18.6704 10.911 18.7936 10.9494 18.8724 11.0282C18.9391 11.0949 18.9795 11.1918 18.9916 11.3191C18.3431 11.3373 17.8684 11.4928 17.5774 11.7817C17.3774 11.9817 17.2744 12.2363 17.2744 12.5393C17.2744 13.0262 17.6279 13.5171 18.3067 13.5171C18.5956 13.5171 18.8684 13.4241 19.0805 13.2625L19.1027 13.4524H19.8906L19.8623 13.2726C19.836 13.0969 19.8219 12.8747 19.8219 12.608ZM18.436 12.8181C18.3128 12.8181 18.1067 12.7736 18.1067 12.4787C18.1067 12.3635 18.1411 12.2747 18.2138 12.2039C18.3108 12.109 18.5269 11.9999 19.0077 11.9898V12.3312C19.0077 12.3555 19.0057 12.4019 18.9916 12.4464C18.935 12.6161 18.7532 12.8181 18.436 12.8181Z" fill="black"/>
<path d="M22.1112 10.2747L21.5072 12.0585C21.491 12.1029 21.4768 12.1494 21.4627 12.1959C21.4465 12.1514 21.4324 12.109 21.4162 12.0686L20.7577 10.2747H19.8506L20.988 13.1252L20.992 13.1332C21.0102 13.1696 21.0162 13.1918 21.0183 13.1999C21.0122 13.2161 21.0001 13.2444 20.992 13.2625C20.893 13.4726 20.7476 13.6686 20.6001 13.7858L20.596 13.7898C20.4304 13.9312 20.2607 13.9939 20.194 14.0141L20.0486 14.0605L20.2627 14.7716L20.4001 14.7474C20.4829 14.7332 20.7779 14.6625 21.1152 14.3797C21.5193 14.0221 21.788 13.4524 22.1395 12.5272L23.0001 10.2747H22.1112Z" fill="black"/>
<path d="M4.03611 10.3333C4.57147 9.78586 5.48056 9.46061 6.46642 9.46061C6.85026 9.46061 7.22601 9.50909 7.57955 9.60808L7.60783 9.61616L8.24016 9.42424L7.95733 9.31515C7.41995 9.10909 6.79773 9 6.15935 9C5.23207 9 4.36743 9.22424 3.72298 9.6303L3.6543 9.67475L3.92096 10.4545L4.03611 10.3333Z" fill="#FF0000"/>
</g>
<defs>
<clipPath id="clip0_611_33200">
<rect width="22" height="5.77172" fill="white" transform="translate(1 9)"/>
</clipPath>
</defs>
</svg>
