<svg width="24" height="24" viewBox="0 0 24 24" fill="none" xmlns="http://www.w3.org/2000/svg">
<g clip-path="url(#clip0_600_44455)">
<path d="M16.2875 7.21569C16.2125 7.09168 16.0756 7.00643 15.918 7.00643C15.6803 7.00643 15.4866 7.20019 15.4866 7.44046C15.4866 7.56705 15.5408 7.68073 15.6261 7.76082L18.8787 11.724L15.6622 15.6122H15.3109H14.2723L17.3131 12.0572C17.3157 12.0547 17.3157 12.0521 17.3183 12.0495C17.4035 11.9565 17.4397 11.8454 17.4397 11.7395C17.4423 11.631 17.4035 11.5224 17.3183 11.4294C17.3157 11.4269 17.3157 11.4243 17.3131 11.4217L13.6807 7.22344L13.6781 7.22086C13.6032 7.09427 13.4637 7.00901 13.3061 7.00901H10.7561C10.5184 7.00901 10.3247 7.20278 10.3247 7.44305C10.3247 7.51538 10.335 7.59031 10.3738 7.64456L13.753 11.7575L10.875 15.2272C10.8569 15.2453 10.6089 15.5993 10.1722 15.5993H6.72063C6.25301 15.5993 5.86548 15.2324 5.86548 14.7441V8.72448C5.86548 8.30078 6.25301 7.86416 6.73097 7.86416H8.88305C9.13624 7.86416 9.3145 7.69106 9.3145 7.43788C9.3145 7.18469 9.13624 6.99609 8.88305 6.99609L6.7103 7.00643C5.68722 7.00643 5 7.85641 5 8.71931V14.7467C5 15.6742 5.81381 16.4673 6.7103 16.4673H10.1619C10.335 16.4673 10.4952 16.4415 10.6373 16.4002C10.6579 16.395 10.6786 16.3872 10.6967 16.3821C11.1695 16.2271 11.4563 15.9093 11.5131 15.8421L14.7528 12.0469C14.9053 11.8712 14.9259 11.618 14.7554 11.4294C14.7528 11.4269 14.7528 11.4243 14.7503 11.4217L11.6836 7.86674H12.748H13.0994L16.303 11.7395L12.9315 15.8266C12.9315 15.8266 12.9315 15.8318 12.9366 15.8369C12.9056 15.8964 12.8875 15.9661 12.8875 16.0385C12.8875 16.2787 13.0813 16.4725 13.319 16.4725H15.8689C16.0265 16.4725 16.166 16.3872 16.241 16.2606L16.2435 16.2581L19.8734 12.0572C19.876 12.0547 19.876 12.0521 19.8786 12.0495C20.0491 11.8609 20.0284 11.6077 19.876 11.432L16.2875 7.21569Z" fill="black"/>
</g>
<defs>
<clipPath id="clip0_600_44455">
<rect width="15" height="9.47382" fill="white" transform="translate(5 7)"/>
</clipPath>
</defs>
</svg>
