<svg width="24" height="24" viewBox="0 0 24 24" fill="none" xmlns="http://www.w3.org/2000/svg">
<path d="M13.7167 19.8448C18.0473 19.8655 22 16.313 22 11.9913C22 7.26517 18.0473 3.99843 13.7167 4H9.98969C5.60721 3.99843 2 7.26614 2 11.9913C2 16.314 5.60721 19.8656 9.98969 19.8448H13.7167Z" fill="#0079BE"/>
<path d="M10.0064 4.65503C6.00185 4.65629 2.7568 7.90227 2.75586 11.9085C2.7568 15.914 6.00182 19.1596 10.0064 19.1609C14.012 19.1596 17.2577 15.914 17.2582 11.9085C17.2576 7.90227 14.012 4.65629 10.0064 4.65503ZM5.4105 11.9085C5.41427 9.95081 6.6369 8.28145 8.36096 7.61807V16.1979C6.6369 15.5349 5.41424 13.8664 5.4105 11.9085ZM11.6513 16.1997V7.61779C13.376 8.27956 14.6005 9.94987 14.6036 11.9085C14.6005 13.8677 13.376 15.5367 11.6513 16.1997Z" fill="white"/>
</svg>
