<svg width="24" height="24" viewBox="0 0 24 24" fill="none" xmlns="http://www.w3.org/2000/svg">
<g clip-path="url(#clip0_998_33638)">
<path d="M3.5475 11.7285H1.64805C1.65964 11.9459 1.73247 12.1148 1.86655 12.2354C2.00063 12.356 2.18105 12.4163 2.40783 12.4163C2.69089 12.4163 2.90608 12.3407 3.05339 12.1896L3.29424 12.6762C3.07574 12.8579 2.74965 12.9487 2.31596 12.9487C1.91041 12.9487 1.58929 12.8273 1.35258 12.5844C1.11753 12.3399 1 11.9994 1 11.5629C1 11.1332 1.12911 10.785 1.38734 10.5184C1.64722 10.2517 1.95842 10.1184 2.32093 10.1184C2.70661 10.1184 3.01615 10.2364 3.24955 10.4725C3.48295 10.7086 3.59964 11.0092 3.59964 11.3744C3.59964 11.4525 3.58226 11.5705 3.5475 11.7285ZM1.6704 11.2495H2.97643C2.93339 10.8504 2.7182 10.6508 2.33086 10.6508C1.97662 10.6508 1.75647 10.8504 1.6704 11.2495Z" fill="#1B46D4"/>
<path d="M6.18427 10.3859L5.91861 10.8623C5.77294 10.7213 5.57763 10.6508 5.33262 10.6508C5.09758 10.6508 4.91138 10.7315 4.77397 10.8929C4.63823 11.0525 4.57036 11.2741 4.57036 11.5578C4.57036 12.1301 4.83605 12.4163 5.36741 12.4163C5.59747 12.4163 5.80027 12.3382 5.97571 12.1819L6.20415 12.6838C6.02374 12.7993 5.86564 12.8723 5.7299 12.9029C5.59581 12.9334 5.4369 12.9487 5.25317 12.9487C4.84266 12.9487 4.51823 12.8264 4.27987 12.5819C4.04316 12.3356 3.9248 11.9943 3.9248 11.5578C3.9248 11.1281 4.05475 10.7808 4.31463 10.5158C4.57453 10.2509 4.92875 10.1184 5.37733 10.1184C5.68688 10.1184 5.95586 10.2076 6.18427 10.3859Z" fill="#1B46D4"/>
<path d="M6.52734 11.5272C6.52734 11.1111 6.64402 10.7723 6.87744 10.5107C7.11248 10.2492 7.42203 10.1184 7.80606 10.1184C8.20994 10.1184 8.52362 10.2441 8.74708 10.4954C8.97054 10.7468 9.08227 11.0907 9.08227 11.5272C9.08227 11.962 8.96807 12.3076 8.73963 12.5641C8.51285 12.8205 8.20167 12.9487 7.80606 12.9487C7.40215 12.9487 7.08765 12.8197 6.86253 12.5615C6.63907 12.3017 6.52734 11.9569 6.52734 11.5272ZM7.1729 11.5272C7.1729 12.1284 7.38393 12.429 7.80606 12.429C7.99972 12.429 8.15284 12.3509 8.26538 12.1947C8.37962 12.0384 8.43672 11.8159 8.43672 11.5272C8.43672 10.9345 8.2265 10.6381 7.80606 10.6381C7.61237 10.6381 7.45844 10.7162 7.3442 10.8725C7.23 11.0287 7.1729 11.247 7.1729 11.5272Z" fill="#1B46D4"/>
<path d="M9.41715 12.722L9.63814 12.215C9.82353 12.3662 10.0329 12.4418 10.2663 12.4418C10.508 12.4418 10.6288 12.3535 10.6288 12.1768C10.6288 12.0732 10.5924 11.9883 10.5196 11.9221C10.4468 11.8558 10.3052 11.7777 10.095 11.6877C9.63648 11.4924 9.40723 11.219 9.40723 10.8674C9.40723 10.6313 9.49494 10.4479 9.67041 10.3171C9.84588 10.1846 10.0702 10.1184 10.3433 10.1184C10.6197 10.1184 10.8796 10.1821 11.1229 10.3095L10.9442 10.8037C10.8084 10.6848 10.6197 10.6254 10.3781 10.6254C10.1612 10.6254 10.0528 10.7137 10.0528 10.8903C10.0528 10.96 10.0884 11.0228 10.1596 11.0788C10.2307 11.1349 10.383 11.2105 10.6164 11.3056C10.8498 11.399 11.0179 11.5128 11.1205 11.6469C11.2231 11.7811 11.2744 11.9433 11.2744 12.1335C11.2744 12.3866 11.1826 12.5861 10.9988 12.7322C10.8167 12.8766 10.5684 12.9487 10.2539 12.9487C10.0768 12.9487 9.93445 12.9334 9.82685 12.9029C9.72091 12.874 9.58436 12.8137 9.41715 12.722Z" fill="#1B46D4"/>
<path d="M12.3424 12.829V13.9677H11.7217V10.1694H12.3424V10.3528C12.498 10.1965 12.6892 10.1184 12.916 10.1184C13.7635 10.1184 14.1873 10.5973 14.1873 11.5552C14.1873 12.0019 14.0697 12.3458 13.8347 12.587C13.6013 12.8281 13.2818 12.9487 12.8763 12.9487C12.6809 12.9487 12.503 12.9088 12.3424 12.829ZM12.3424 10.8368V12.2711C12.455 12.3645 12.5866 12.4112 12.7372 12.4112C13.0236 12.4112 13.2288 12.3416 13.353 12.2023C13.4788 12.0613 13.5417 11.8397 13.5417 11.5374C13.5417 11.2147 13.4796 10.988 13.3555 10.8572C13.2313 10.7247 13.0261 10.6585 12.7397 10.6585C12.5907 10.6585 12.4583 10.7179 12.3424 10.8368Z" fill="#1B46D4"/>
<path d="M17.109 11.7285H15.2096C15.2212 11.9459 15.294 12.1148 15.4281 12.2354C15.5622 12.356 15.7426 12.4163 15.9693 12.4163C16.2524 12.4163 16.4676 12.3407 16.6149 12.1896L16.8558 12.6762C16.6373 12.8579 16.3112 12.9487 15.8775 12.9487C15.4719 12.9487 15.1508 12.8273 14.9141 12.5844C14.679 12.3399 14.5615 11.9994 14.5615 11.5629C14.5615 11.1332 14.6906 10.785 14.9489 10.5184C15.2087 10.2517 15.52 10.1184 15.8824 10.1184C16.2681 10.1184 16.5777 10.2364 16.8111 10.4725C17.0445 10.7086 17.1612 11.0092 17.1612 11.3744C17.1612 11.4525 17.1438 11.5705 17.109 11.7285ZM15.2319 11.2495H16.538C16.4949 10.8504 16.2797 10.6508 15.8924 10.6508C15.5381 10.6508 15.318 10.8504 15.2319 11.2495Z" fill="#1B46D4"/>
<path d="M19.3709 12.8978V11.3209C19.3709 11.0882 19.327 10.9183 19.2393 10.8113C19.1532 10.7043 19.0117 10.6508 18.8147 10.6508C18.7237 10.6508 18.626 10.6772 18.5217 10.7298C18.4191 10.7825 18.3388 10.8479 18.2809 10.926V12.8978H17.6602V10.1694H18.1071L18.2213 10.4241C18.3901 10.2203 18.6392 10.1184 18.9687 10.1184C19.2848 10.1184 19.5339 10.2161 19.716 10.4114C19.8998 10.605 19.9916 10.8759 19.9916 11.224V12.8978H19.3709Z" fill="#1B46D4"/>
<path d="M22.3759 12.8978V12.7322C22.3246 12.7899 22.2377 12.8409 22.1152 12.885C21.9927 12.9275 21.8661 12.9487 21.7353 12.9487C21.3645 12.9487 21.0724 12.8281 20.8588 12.587C20.647 12.3458 20.541 12.0095 20.541 11.5781C20.541 11.1467 20.6627 10.796 20.906 10.526C21.151 10.2542 21.4572 10.1184 21.8247 10.1184C22.0267 10.1184 22.2104 10.1608 22.3759 10.2458V9.15285L22.9966 9V12.8978H22.3759ZM22.3759 10.8215C22.2435 10.7128 22.1053 10.6585 21.9613 10.6585C21.713 10.6585 21.5218 10.7366 21.3877 10.8928C21.2536 11.0474 21.1866 11.2699 21.1866 11.5603C21.1866 12.1275 21.4531 12.4112 21.9861 12.4112C22.0457 12.4112 22.1185 12.3933 22.2046 12.3577C22.2923 12.3203 22.3494 12.2829 22.3759 12.2456V10.8215Z" fill="#1B46D4"/>
</g>
<defs>
<clipPath id="clip0_998_33638">
<rect width="22" height="5" fill="white" transform="translate(1 9)"/>
</clipPath>
</defs>
</svg>
