<svg width="24" height="24" viewBox="0 0 24 24" fill="none" xmlns="http://www.w3.org/2000/svg">
<path d="M9.32324 7.18994H14.6787V15.937H9.32324V7.18994Z" fill="#FF5E00"/>
<path d="M9.87504 11.5637C9.87437 10.7214 10.0653 9.89005 10.4334 9.13247C10.8015 8.37489 11.337 7.71097 11.9996 7.19094C11.179 6.54604 10.1935 6.145 9.15577 6.03369C8.11804 5.92237 7.06991 6.10525 6.1312 6.56144C5.19248 7.01762 4.40104 7.7287 3.84734 8.61341C3.29363 9.49811 3 10.5208 3 11.5644C3 12.6081 3.29363 13.6308 3.84734 14.5155C4.40104 15.4002 5.19248 16.1113 6.1312 16.5675C7.06991 17.0236 8.11804 17.2065 9.15577 17.0952C10.1935 16.9839 11.179 16.5829 11.9996 15.9379C11.3368 15.4178 10.8011 14.7536 10.433 13.9957C10.065 13.2379 9.87414 12.4062 9.87504 11.5637V11.5637Z" fill="#ED0006"/>
<path d="M21.0004 11.5639C21.0004 12.6077 20.7067 13.6304 20.1529 14.5151C19.5991 15.3999 18.8075 16.111 17.8687 16.5671C16.9299 17.0232 15.8816 17.206 14.8438 17.0945C13.806 16.983 12.8205 16.5818 12 15.9366C12.6623 15.4162 13.1977 14.7521 13.5659 13.9944C13.9341 13.2368 14.1254 12.4055 14.1254 11.5631C14.1254 10.7208 13.9341 9.88947 13.5659 9.13186C13.1977 8.37424 12.6623 7.71013 12 7.18965C12.8205 6.54453 13.806 6.1433 14.8438 6.03182C15.8816 5.92034 16.9299 6.10311 17.8687 6.55923C18.8076 7.01535 19.5991 7.72642 20.1529 8.61116C20.7067 9.4959 21.0004 10.5186 21.0004 11.5624V11.5639Z" fill="#F9A000"/>
</svg>
