<svg width="24" height="24" viewBox="0 0 24 24" fill="none" xmlns="http://www.w3.org/2000/svg">
<g clip-path="url(#clip0_1978_2753)">
<path d="M5.90949 6H10.8922C11.5877 6 12.0203 6.56693 11.8581 7.26477L9.53827 17.2246C9.37456 17.92 8.67817 18.4874 7.98214 18.4874H2.99992C2.30535 18.4874 1.87178 17.92 2.03404 17.2246L4.35481 7.26477C4.51707 6.56693 5.21309 6 5.90949 6Z" fill="#E21836"/>
<path d="M10.4775 6H16.2075C16.9029 6 16.5893 6.56693 16.4258 7.26477L14.1063 17.2246C13.9436 17.92 13.9943 18.4874 13.2975 18.4874H7.56748C6.87061 18.4874 6.43934 17.92 6.60306 17.2246L8.92237 7.26477C9.08706 6.56693 9.78163 6 10.4775 6Z" fill="#00447C"/>
<path d="M15.9802 6H20.9629C21.6594 6 22.092 6.56693 21.9285 7.26477L19.609 17.2246C19.4453 17.92 18.7484 18.4874 18.052 18.4874H13.0716C12.3748 18.4874 11.9425 17.92 12.1058 17.2246L14.4256 7.26477C14.5878 6.56693 15.2834 6 15.9802 6Z" fill="#007B84"/>
<path d="M7.21102 9.1919C6.69863 9.19712 6.5473 9.1919 6.49896 9.18049C6.48038 9.26878 6.13462 10.8638 6.13364 10.8651C6.0592 11.1878 6.00503 11.4178 5.82103 11.5664C5.71659 11.6527 5.59465 11.6944 5.45328 11.6944C5.22605 11.6944 5.09367 11.5815 5.07145 11.3675L5.0672 11.2941C5.0672 11.2941 5.13642 10.8618 5.13642 10.8594C5.13642 10.8594 5.49931 9.4059 5.56429 9.21376C5.56769 9.20283 5.56866 9.19712 5.56951 9.1919C4.86316 9.1981 4.73795 9.1919 4.72933 9.18049C4.72459 9.19615 4.7071 9.28627 4.7071 9.28627L4.33656 10.9245L4.30474 11.0634L4.24316 11.5179C4.24316 11.6527 4.26964 11.7627 4.32235 11.8558C4.49116 12.1508 4.97271 12.195 5.24512 12.195C5.59611 12.195 5.92536 12.1204 6.14785 11.9843C6.53406 11.7561 6.63511 11.3994 6.72522 11.0824L6.767 10.9198C6.767 10.9198 7.14082 9.41015 7.20434 9.21376C7.20677 9.20283 7.20774 9.19712 7.21102 9.1919ZM8.48292 10.4097C8.39281 10.4097 8.22812 10.4316 8.0802 10.5041C8.02652 10.5317 7.97575 10.5635 7.92219 10.5952L7.97053 10.4207L7.94405 10.3913C7.63035 10.4548 7.56015 10.4633 7.27037 10.5041L7.24608 10.5202C7.21244 10.7992 7.18257 11.009 7.05784 11.5573C7.01035 11.7594 6.96104 11.9634 6.91161 12.165L6.92497 12.1907C7.22192 12.175 7.31203 12.175 7.57011 12.1792L7.591 12.1565C7.62379 11.9886 7.62804 11.9492 7.70067 11.609C7.7348 11.4478 7.80596 11.0934 7.84106 10.9672C7.90555 10.9373 7.96919 10.9079 8.02992 10.9079C8.17456 10.9079 8.15695 11.0341 8.15137 11.0844C8.14517 11.1688 8.09246 11.4445 8.03842 11.6812L8.00235 11.834C7.97721 11.9468 7.94964 12.0565 7.9245 12.1683L7.93543 12.1907C8.22812 12.175 8.31739 12.175 8.56733 12.1792L8.59672 12.1565C8.6419 11.8942 8.65514 11.824 8.73529 11.442L8.77562 11.2665C8.85395 10.9231 8.8933 10.7489 8.83403 10.6071C8.77137 10.4481 8.62101 10.4097 8.48292 10.4097ZM9.90378 10.7693C9.74821 10.7992 9.64898 10.8191 9.55037 10.832C9.4526 10.8477 9.35726 10.8619 9.20691 10.8828L9.195 10.8936L9.18407 10.9022C9.16841 11.0142 9.15748 11.111 9.13671 11.2248C9.1191 11.3424 9.09202 11.4762 9.04793 11.6683C9.0138 11.8154 8.99619 11.8666 8.97676 11.9184C8.95781 11.9701 8.93692 12.0204 8.89855 12.165L8.90753 12.1784L8.91506 12.1906C9.05558 12.184 9.14752 12.1792 9.24201 12.1784C9.33637 12.175 9.43414 12.1784 9.58546 12.1792L9.5987 12.1684L9.61291 12.1565C9.63477 12.0261 9.63805 11.991 9.65141 11.9273C9.66465 11.8591 9.68748 11.7646 9.74347 11.5122C9.76995 11.3937 9.79946 11.2755 9.82691 11.1546C9.85545 11.0341 9.88532 10.9154 9.91374 10.7969L9.90949 10.7826L9.90378 10.7693ZM9.9071 10.2845C9.76573 10.201 9.51761 10.2275 9.35062 10.3428C9.18411 10.4557 9.16517 10.616 9.30605 10.7006C9.44498 10.7817 9.69408 10.7575 9.85961 10.6413C10.0258 10.5259 10.0465 10.3671 9.9071 10.2845ZM10.762 12.2168C11.0481 12.2168 11.3412 12.138 11.5619 11.9041C11.7317 11.7144 11.8095 11.4321 11.8365 11.3159C11.9243 10.9306 11.8559 10.7508 11.7701 10.6412C11.6396 10.4742 11.4091 10.4207 11.17 10.4207C11.0262 10.4207 10.6837 10.4349 10.4162 10.6816C10.224 10.8595 10.1352 11.1009 10.0817 11.3324C10.0276 11.5683 9.96545 11.9928 10.3559 12.1508C10.4764 12.2026 10.6501 12.2168 10.762 12.2168ZM10.7397 11.35C10.8056 11.0583 10.8835 10.8134 11.0822 10.8134C11.2379 10.8134 11.2492 10.9956 11.1799 11.2883C11.1676 11.3533 11.1107 11.5948 11.0338 11.6977C10.9802 11.7736 10.9166 11.8197 10.8464 11.8197C10.8256 11.8197 10.7013 11.8197 10.6994 11.6352C10.6984 11.5441 10.717 11.4511 10.7397 11.35ZM12.5515 12.1793L12.5738 12.1566C12.6055 11.9886 12.6107 11.9491 12.6809 11.6091C12.716 11.4478 12.7887 11.0934 12.8228 10.9672C12.8874 10.9372 12.95 10.9078 13.0126 10.9078C13.1563 10.9078 13.1388 11.034 13.1331 11.0843C13.1279 11.1688 13.0752 11.4444 13.0201 11.6811L12.986 11.8339C12.9599 11.9468 12.9315 12.0564 12.9064 12.1683L12.9173 12.1907C13.2109 12.175 13.2968 12.175 13.5482 12.1793L13.5786 12.1566C13.6227 11.8941 13.6346 11.8239 13.7171 11.4421L13.7565 11.2665C13.8352 10.923 13.875 10.749 13.8167 10.6071C13.7522 10.4481 13.6009 10.4098 13.4648 10.4098C13.3745 10.4098 13.209 10.4315 13.0619 10.5041C13.0093 10.5317 12.9566 10.5634 12.9049 10.5952L12.95 10.4207L12.9258 10.3912C12.6122 10.4548 12.5405 10.4633 12.2511 10.5041L12.2289 10.5203C12.1938 10.7992 12.1653 11.0089 12.0405 11.5573C11.9931 11.7594 11.9437 11.9635 11.8944 12.1651L11.9077 12.1907C12.2051 12.175 12.2939 12.175 12.5515 12.1793ZM14.7091 12.1906C14.7275 12.1005 14.8372 11.5664 14.8382 11.5664C14.8382 11.5664 14.9316 11.1745 14.9373 11.1603C14.9373 11.1603 14.9667 11.1194 14.9961 11.1033H15.0393C15.4473 11.1033 15.9079 11.1033 16.269 10.8377C16.5147 10.6555 16.6826 10.3865 16.7576 10.0596C16.777 9.9794 16.7913 9.88407 16.7913 9.78873C16.7913 9.66351 16.7662 9.53964 16.6936 9.44284C16.5094 9.18525 16.1428 9.18051 15.7195 9.17857C15.7182 9.17857 15.5109 9.18051 15.5109 9.18051C14.9691 9.18719 14.7518 9.18525 14.6626 9.17432C14.655 9.21379 14.6408 9.28399 14.6408 9.28399C14.6408 9.28399 14.4468 10.1834 14.4468 10.1849C14.4468 10.1849 13.9823 12.0972 13.9605 12.1874C14.4335 12.1816 14.6275 12.1816 14.7091 12.1906ZM15.0687 10.5928C15.0687 10.5928 15.275 9.69521 15.2741 9.69861L15.2807 9.65258L15.2837 9.61748L15.3661 9.62599C15.3661 9.62599 15.7917 9.66254 15.8016 9.66351C15.9696 9.72849 16.0388 9.89597 15.9905 10.1146C15.9464 10.3144 15.8168 10.4823 15.6503 10.5635C15.5132 10.6322 15.3452 10.6379 15.1722 10.6379H15.0602L15.0687 10.5928ZM16.3534 11.3666C16.2989 11.5991 16.2362 12.0237 16.6248 12.175C16.7486 12.2277 16.8596 12.2434 16.9725 12.2377C17.0916 12.2312 17.202 12.1715 17.3043 12.0855C17.295 12.1208 17.2858 12.1562 17.2766 12.1916L17.2942 12.2144C17.5736 12.2026 17.6603 12.2026 17.9631 12.2049L17.9906 12.184C18.0348 11.9241 18.0764 11.6717 18.1913 11.1745C18.2473 10.9363 18.3032 10.7005 18.3606 10.4633L18.3516 10.4372C18.039 10.4951 17.9555 10.5075 17.6548 10.5501L17.6319 10.5687C17.6289 10.5929 17.6257 10.6161 17.6228 10.6393C17.5761 10.5637 17.5083 10.4992 17.4037 10.459C17.27 10.4065 16.9559 10.4742 16.686 10.72C16.4963 10.8955 16.4052 11.136 16.3534 11.3666ZM17.01 11.3808C17.0769 11.0943 17.1538 10.8519 17.353 10.8519C17.4789 10.8519 17.5452 10.9682 17.5317 11.1664C17.521 11.2158 17.5095 11.2679 17.4958 11.3268C17.4759 11.4119 17.4543 11.4963 17.4332 11.5809C17.4119 11.6387 17.387 11.6932 17.3596 11.7295C17.3084 11.8022 17.1865 11.8472 17.1163 11.8472C17.0963 11.8472 16.9734 11.8472 16.9692 11.666C16.9682 11.5758 16.9868 11.4829 17.01 11.3808ZM20.4386 10.4349L20.4144 10.4073C20.1051 10.47 20.0491 10.4799 19.7649 10.5183L19.744 10.5392C19.743 10.5426 19.7422 10.5478 19.7407 10.5525L19.7397 10.5478C19.5282 11.0359 19.5344 10.9306 19.3622 11.3149C19.3612 11.2974 19.3612 11.2865 19.3602 11.2679L19.3171 10.4349L19.29 10.4073C18.966 10.47 18.9583 10.4799 18.6591 10.5183L18.6358 10.5392C18.6325 10.5491 18.6325 10.5601 18.6305 10.572L18.6325 10.5762C18.6699 10.7674 18.6609 10.7248 18.6984 11.0264C18.7159 11.1745 18.7392 11.3234 18.7567 11.4696C18.7862 11.7143 18.8028 11.8348 18.8388 12.2083C18.6367 12.5418 18.5889 12.668 18.3943 12.9606L18.3957 12.9636L18.2587 13.1802C18.243 13.2031 18.2288 13.2187 18.2089 13.2254C18.187 13.2362 18.1586 13.2382 18.1191 13.2382H18.0432L17.9304 13.6134L18.3175 13.6201C18.5447 13.6191 18.6875 13.5129 18.7644 13.3701L19.0078 12.953H19.0039L19.0295 12.9236C19.1932 12.5712 20.4386 10.4349 20.4386 10.4349ZM16.3534 15.3636H16.1892L16.797 13.3535H16.9986L17.0626 13.1464L17.0688 13.3767C17.0612 13.519 17.1732 13.6452 17.4674 13.6243H17.8075L17.9246 13.2372H17.7966C17.723 13.2372 17.6889 13.2187 17.6931 13.1788L17.6869 12.9446H17.057V12.9458C16.8533 12.95 16.2451 12.9653 16.1219 12.9981C15.9729 13.0365 15.8159 13.1494 15.8159 13.1494L15.8776 12.9421H15.2883L15.1655 13.3535L14.5497 15.3943H14.4302L14.313 15.7786H15.4866L15.4473 15.9067H16.0256L16.064 15.7786H16.2263L16.3534 15.3636ZM15.8719 13.7619C15.7775 13.788 15.6019 13.8672 15.6019 13.8672L15.7581 13.3535H16.2263L16.1133 13.7278C16.1133 13.7278 15.9687 13.7363 15.8719 13.7619ZM15.8809 14.4958C15.8809 14.4958 15.7338 14.5143 15.637 14.5361C15.5417 14.5651 15.3629 14.6561 15.3629 14.6561L15.5242 14.1215H15.9948L15.8809 14.4958ZM15.6185 15.3683H15.1489L15.285 14.9171H15.7532L15.6185 15.3683ZM16.7495 14.1215H17.4265L17.3292 14.4366H16.6433L16.5403 14.781H17.1405L16.686 15.4209C16.6542 15.4679 16.6257 15.4845 16.594 15.4978C16.5621 15.5139 16.5204 15.5329 16.472 15.5329H16.3055L16.1911 15.9101H16.6266C16.853 15.9101 16.9867 15.8071 17.0855 15.6719L17.3971 15.2454L17.464 15.6785C17.4782 15.7596 17.5365 15.8071 17.576 15.8256C17.6196 15.8474 17.6647 15.885 17.7283 15.8905C17.7966 15.8935 17.8459 15.8958 17.8787 15.8958H18.0926L18.2211 15.4736H18.1367C18.0883 15.4736 18.0048 15.4655 17.9906 15.4503C17.9764 15.4318 17.9764 15.4034 17.9688 15.3602L17.9009 14.9261H17.6229L17.7448 14.781H18.4294L18.5347 14.4366H17.9009L17.9996 14.1215H18.6315L18.7487 13.733H16.8648L16.7495 14.1215ZM11.0319 15.456L11.1899 14.9304H11.8393L11.958 14.5395H11.308L11.4072 14.2159H12.0424L12.1601 13.8374H10.5708L10.4555 14.2159H10.8166L10.7203 14.5395H10.3582L10.2383 14.9371H10.5992L10.3886 15.6325C10.3602 15.7246 10.402 15.7597 10.4284 15.8024C10.4555 15.8441 10.483 15.8716 10.5447 15.8873C10.6083 15.9015 10.6519 15.91 10.7112 15.91H11.4433L11.5737 15.4769L11.2492 15.5215C11.1865 15.5215 11.013 15.514 11.0319 15.456ZM11.1064 12.9398L10.9418 13.2372C10.9066 13.3022 10.8749 13.3425 10.8464 13.3611C10.8212 13.3767 10.7715 13.3833 10.6993 13.3833H10.6134L10.4987 13.7638H10.7838C10.921 13.7638 11.0263 13.7135 11.0765 13.6884C11.1306 13.6595 11.1448 13.676 11.1866 13.6357L11.2829 13.5522H12.1733L12.2915 13.1561H11.6397L11.7535 12.9398H11.1064ZM12.421 15.4637C12.4058 15.4418 12.4168 15.4033 12.44 15.3232L12.6834 14.5176H13.5492C13.6754 14.5158 13.7664 14.5143 13.8257 14.5101C13.8893 14.5034 13.9586 14.4807 14.034 14.4399C14.1118 14.3971 14.1517 14.3521 14.1853 14.3003C14.2228 14.2487 14.2831 14.1358 14.3348 13.9616L14.6408 12.9421L13.7423 12.9474C13.7423 12.9474 13.4656 12.9882 13.3438 13.0332C13.2209 13.0835 13.0453 13.2239 13.0453 13.2239L13.1264 12.9445H12.5714L11.7943 15.5215C11.7668 15.6216 11.7483 15.6942 11.7441 15.7378C11.7426 15.7848 11.8033 15.8313 11.8427 15.8664C11.8892 15.9015 11.9579 15.8958 12.0239 15.9015C12.0932 15.9067 12.1919 15.91 12.328 15.91H12.7545L12.8854 15.4679L12.5036 15.504C12.4628 15.504 12.4333 15.4821 12.421 15.4637ZM12.8404 13.9735H13.7498L13.692 14.1547C13.6839 14.1589 13.6644 14.1457 13.5719 14.1566H12.7844L12.8404 13.9735ZM13.0226 13.3658H13.9396L13.8737 13.584C13.8737 13.584 13.4414 13.5798 13.3722 13.5925C13.0676 13.6452 12.8897 13.808 12.8897 13.808L13.0226 13.3658ZM13.7123 14.7615C13.7048 14.7886 13.6929 14.8051 13.6763 14.8175C13.6578 14.8294 13.6279 14.8336 13.5834 14.8336H13.4538L13.4614 14.613H12.9224L12.9006 15.6918C12.8997 15.7696 12.9073 15.8147 12.9642 15.8508C13.0212 15.8958 13.1967 15.9015 13.4329 15.9015H13.7706L13.8926 15.4977L13.5986 15.5139L13.5008 15.5196C13.4874 15.5139 13.4747 15.5087 13.4605 15.4944C13.4481 15.4822 13.4272 15.4897 13.4306 15.4119L13.4329 15.1353L13.7413 15.1226C13.9078 15.1226 13.9789 15.0684 14.0397 15.0168C14.0976 14.9674 14.1165 14.9105 14.1384 14.8336L14.1901 14.5888H13.7664L13.7123 14.7615Z" fill="#FEFEFE"/>
</g>
<defs>
<clipPath id="clip0_1978_2753">
<rect width="20" height="12.5" fill="white" transform="translate(2 6)"/>
</clipPath>
</defs>
</svg>
