<svg width="24" height="24" viewBox="0 0 24 24" fill="none" xmlns="http://www.w3.org/2000/svg">
<g clip-path="url(#clip0_611_33192)">
<path d="M15.3258 8.01123C13.7653 8.01123 12.3707 8.82008 12.3707 10.3145C12.3707 12.0283 14.844 12.1467 14.844 13.0076C14.844 13.3702 14.4286 13.6947 13.719 13.6947C12.712 13.6947 11.9594 13.2412 11.9594 13.2412L11.6373 14.7492C11.6373 14.7492 12.5044 15.1323 13.6555 15.1323C15.3616 15.1323 16.7042 14.2837 16.7042 12.7637C16.7042 10.9528 14.2206 10.8379 14.2206 10.0388C14.2206 9.75484 14.5616 9.44368 15.2691 9.44368C16.0674 9.44368 16.7188 9.77346 16.7188 9.77346L17.0339 8.31696C17.0339 8.31696 16.3252 8.01123 15.3258 8.01123ZM1.04853 8.12116L1.01074 8.341C1.01074 8.341 1.66726 8.46116 2.25856 8.70083C3.0199 8.97567 3.07414 9.13567 3.20236 9.63261L4.5996 15.0189H6.47261L9.35812 8.12116H7.48941L5.63529 12.811L4.87871 8.83566C4.80932 8.38069 4.45786 8.12116 4.02765 8.12116H1.04853ZM10.1096 8.12116L8.64361 15.0189H10.4256L11.8864 8.12116H10.1096ZM20.0483 8.12116C19.6186 8.12116 19.3909 8.35121 19.2238 8.75322L16.6131 15.0189H18.4818L18.8434 13.9746H21.12L21.3399 15.0189H22.9887L21.5503 8.12116H20.0483ZM20.2913 9.98472L20.8452 12.5731H19.3612L20.2913 9.98472Z" fill="url(#paint0_linear_611_33192)"/>
</g>
<defs>
<linearGradient id="paint0_linear_611_33192" x1="1.00254" y1="10.4446" x2="22.9901" y2="10.4446" gradientUnits="userSpaceOnUse">
<stop stop-color="#20225F"/>
<stop offset="0.2" stop-color="#1A1F61"/>
<stop offset="0.410233" stop-color="#172272"/>
<stop offset="0.595197" stop-color="#152682"/>
<stop offset="0.802083" stop-color="#12288E"/>
<stop offset="1" stop-color="#0E2C9A"/>
</linearGradient>
<clipPath id="clip0_611_33192">
<rect width="22" height="7.14304" fill="white" transform="translate(1 8)"/>
</clipPath>
</defs>
</svg>
